<?xml version="1.0" encoding="utf-8"?>
<!-- Generator: Adobe Illustrator 22.0.1, SVG Export Plug-In . SVG Version: 6.00 Build 0)  -->
<svg version="1.1" id="_x32_71e5882-3c8d-41ed-8a0a-1cb2b4d0cbc1"
	 xmlns="http://www.w3.org/2000/svg" xmlns:xlink="http://www.w3.org/1999/xlink" x="0px" y="0px" viewBox="0 0 1137.7 859.7"
	 style="enable-background:new 0 0 1137.7 859.7;" xml:space="preserve">
<style type="text/css">
	.st0{fill:#0091FF;}
	.st1{fill:#FF6C67;}
	.st2{fill:none;stroke:#272627;stroke-miterlimit:10;}
	.st3{fill:#232325;}
	.st4{fill:#FFFFFF;stroke:#070707;stroke-miterlimit:10;}
	.st5{fill:#282037;}
	.st6{fill:#FFFFFE;}
	.st7{fill:#2D4F6F;}
	.st8{fill:#ED9F94;}
	.st9{fill:#E0857D;}
	.st10{fill:#F7B500;}
	.st11{fill:#FA6400;}
	.st12{fill:#1A7B6E;}
	.st13{fill:#FAFAFA;stroke:#000000;stroke-miterlimit:10;}
	.st14{fill:none;stroke:#000000;stroke-miterlimit:10;}
	.st15{fill:#EC9E94;}
	.st16{fill:#242325;}
	.st17{fill:#6236FF;}
	.st18{fill:#7E6663;}
	.st19{fill:#E0867D;}
	.st20{fill:#FFFFFF;}
	.st21{fill:#272627;}
	.st22{fill:#FEFDFC;}
	.st23{fill:#FFD35A;}
	.st24{fill:none;stroke:#FFFFFF;stroke-miterlimit:10;}
</style>
<title>team spirit</title>
<path class="st0" d="M369.6,94.9c0,0-66.7-1.9-97.2-3.8c0,0-87.7-11.4-152.4,21S49.4,222.6,59,253s49.5,108.6,49.5,108.6
	s57.2,106.7-22.9,177.2c0,0-106.7,93.4-74.3,167.7c0,0,38.1,97.2,213.4,61c0,0,91.5-22.9,230.6-91.5c0,0,83.8-43.8,118.1-32.4
	c34.3,11.4,61,36.2,123.9,64.8c62.9,28.6,234.4,104.8,331.6,66.7c97.2-38.1,135.3-116.2,89.6-192.5c0,0-57.2-135.3-198.2-171.5
	c0,0-154.3-22.9-169.6-114.3c0,0,7.6-108.6-1.9-125.8C739.2,154,725.9,62.5,623,54.9c0,0-91.5,0-175.3,34.3
	C417.2,93,388.6,94.9,369.6,94.9z"/>
<path class="st1" d="M444.3,351.7c0,0-20.6-14.8-28.6-18.6l-69.2,1.3c0,0-18.9,10.2-30.3,21.6l-13.4,62c0,0,57.3,48.5,76.3,44.7
	s80-62.9,80-62.9L444.3,351.7z"/>
<line class="st2" x1="192.4" y1="239.7" x2="891.7" y2="239.7"/>
<path class="st3" d="M336.4,475c0,0-20.3,94.3-8.8,151.5h48l7.3-81.9c0,0,0-7.6,3.8-5.7c0,0,5.7-1.9,3.8,11.4l5,76.2h50.3
	c0,0,1.9-141-11.4-150.5L336.4,475z"/>
<path class="st4" d="M973.3,393.1H823.4c-8.1,0-14.6-6.5-14.6-14.6V241.9c0-8.1,6.5-14.6,14.6-14.6h149.9c8.1,0,14.6,6.5,14.6,14.6
	v136.6C987.9,386.6,981.4,393.1,973.3,393.1z"/>
<polygon class="st5" points="818.3,393.1 831.7,368.3 856.4,376 828.8,424.5 805.9,415 "/>
<polyline class="st6" points="814.2,408.6 829.7,416 850.7,379.8 833.6,372.1 814.2,408.6 "/>
<path class="st2" d="M548.7,394.1h47.6c0,0,9.5,41.9-22.9,45.7C573.5,439.8,543,443.6,548.7,394.1z"/>
<polygon class="st7" points="455.8,590.3 455.3,626.5 619.2,626.5 619.2,590.3 "/>
<path class="st8" d="M392.4,428.6l-15.2,20.7l-61-72.4c0,0,15.2-28.6,7.6-40c0,0-1.9,0-11.4,13.3c0,0-1.9-47.6-9.5-40
	c0,0-3.8-3.8,0,24.8H301l-9.5-24.8c0,0-7.6-7.6-7.6,1.9c0,9.5,5.7,26.7,5.7,26.7h-1.9l-11.4-21c0,0-9.5-7.6-5.7,9.5l7.6,15.2
	l-1.9,1.9c0,0-11.4-17.1-13.3-17.1c-1.9,0-7.6-1.9-1.9,9.5c5.7,11.4,9.5,19.1,9.5,19.1s5.7,17.1,11.4,24.8
	c0,0,64.8,118.1,81.9,133.4c0,0,7.6,13.3,28.6,3.8s47.4-49.8,47.4-49.8s-7.7-2-20.5-13.7C407.7,443.6,392.4,428.6,392.4,428.6z"/>
<path class="st2" d="M297.2,367.4c0,0,0-21,15.2-17.1"/>
<path class="st9" d="M390.2,431.6c0,0,34.6,46.3,42.2,46.3l7.6-9.5c0,0-26.7-15.2-47.6-40L390.2,431.6z"/>
<path class="st3" d="M350.5,331.2c0,0-43.8-9.5-32.4-41.9c0,0,0-11.4,21-30.5l3.8-5.7l1.9-22.9c0,0,13.3-21,36.2-21
	c0,0,21-3.8,32.4,19.1c0,0,9.5,26.7,19.1,32.4c0,0,21,24.8,13.3,45.7c-7.6,21-34.3,24.8-34.3,24.8H350.5z"/>
<path class="st2" d="M880.2,626.5H200c-6.3,0-11.4-5.1-11.4-11.4V203.5c0-6.3,5.1-11.4,11.4-11.4h680.3c6.3,0,11.4,5.1,11.4,11.4
	v411.6C891.7,621.4,886.6,626.5,880.2,626.5z"/>
<circle class="st10" cx="231.4" cy="217.8" r="6.7"/>
<circle class="st11" cx="254.3" cy="217.8" r="6.7"/>
<circle class="st12" cx="279.1" cy="217.8" r="6.7"/>
<path class="st8" d="M303.6,419.4c0,0-14.1,140.5-14.1,155.7c0,0,3.8,26.7,24.8,22.9c0,0,3.8-3.8-5.7-9.5c0,0-7.6,0-3.8-15.2
	c0,0,3.8,1.9,5.7,7.6c0,0,3.8,3.8,5.7-1.9c0,0,0-11.4-9.5-19.1l20.9-99.3L303.6,419.4z"/>
<polyline class="st13" points="640.2,106.3 640.2,146.3 655.4,146.3 655.4,159.7 670.6,148.2 790.7,148.2 790.7,106.3 638.2,106.3 
	"/>
<line class="st14" x1="659.2" y1="119.7" x2="760.2" y2="119.7"/>
<line class="st14" x1="661.1" y1="133" x2="697.3" y2="133"/>
<polygon class="st15" points="676.7,304.9 676.4,325.5 666.8,331.2 691.6,344.5 716.4,331.2 706.8,325.5 707.1,304 "/>
<ellipse class="st16" cx="692.6" cy="305.9" rx="14.3" ry="11.9"/>
<ellipse transform="matrix(0.8842 -0.467 0.467 0.8842 -52.1061 339.697)" class="st8" cx="659.2" cy="275" rx="7.6" ry="10.5"/>
<path class="st2" d="M653.5,272.1c0,0,4.8,0.7,6.2,5.1"/>
<ellipse transform="matrix(0.467 -0.8842 0.8842 0.467 144.4207 785.7152)" class="st8" cx="724" cy="273.1" rx="10.5" ry="7.6"/>
<path class="st2" d="M729.7,270.2c0,0-4.8,0.7-6.2,5.1"/>
<path class="st17" d="M666.8,331.2c0,0-28.6,14.8-37.2,26.5v120.2h105.8l7.6-64.8l34.3-1.9c0,0-7.6-66.7-61-80l-24.8,13.3
	L666.8,331.2z"/>
<path class="st18" d="M678.5,626.5l7.1-83.8h6.9l5,83.8h49.8c0,0,7.1-127.7-11.9-148.6H628.7l-1,148.6H678.5z"/>
<line class="st2" x1="745" y1="382.6" x2="743" y2="413.1"/>
<path class="st8" d="M800.2,403.6c0,0,11.4-15.2,24.8-7.6c0,0,5.7,5.7,3.8,7.6c-1.9,1.9-9.5,0-9.5,0L807.8,415l21,9.5
	c0,0-3.8,9.5-15.2,5.7l-32.4,61c0,0-15.2,13.3-26.7-5.7l-14.2-48.8l2.3-19.3l0.5-5.5l28.5-0.3l5.8,32.1l21-24.8
	C798.3,418.8,798.3,405.5,800.2,403.6z"/>
<polyline class="st19" points="776.4,435 765.9,460.7 777.3,445.5 776.4,438.8 "/>
<polygon class="st19" points="771.6,415 741.1,430.3 744,412.2 771,411.6 "/>
<path class="st8" d="M365,299.6l-0.2,26.8c0,0-19.1,7.6-24.8,11.4s22.9,11.4,41.9,11.4s38.1-5.7,41.9-11.4c0,0-16.2-10.5-27.6-12.4
	l1.1-23.7L365,299.6z"/>
<path class="st20" d="M966,500.8h-91.5c-4.2,0-7.6-3.4-7.6-7.6v0c0-4.2,3.4-7.6,7.6-7.6H966c4.2,0,7.6,3.4,7.6,7.6v0
	C973.6,497.3,970.2,500.8,966,500.8z"/>
<path class="st20" d="M941.2,533.2h-59.1c-3.1,0-5.7-2.6-5.7-5.7v0c0-3.1,2.6-5.7,5.7-5.7h59.1c3.1,0,5.7,2.6,5.7,5.7v0
	C946.9,530.6,944.4,533.2,941.2,533.2z"/>
<ellipse transform="matrix(0.2956 -0.9553 0.9553 0.2956 36.2012 587.98)" class="st8" cx="416.8" cy="269.4" rx="11.2" ry="7.8"/>
<ellipse transform="matrix(0.9553 -0.2956 0.2956 0.9553 -64.1715 114.4109)" class="st8" cx="346.3" cy="269.4" rx="7.8" ry="11.2"/>
<path class="st2" d="M344.8,268.3c0,0,5.6-0.3,6.6,4.6"/>
<path class="st2" d="M418.1,268.3c0,0-5.6-0.3-6.6,4.6"/>
<ellipse class="st3" cx="384.8" cy="295.9" rx="17.1" ry="16.2"/>
<path class="st8" d="M350.5,256.9c0,0,0,21,3.8,28.6c3.8,7.6,13.3,21,26.7,21c13.3,0,28.6-9.5,30.5-26.7l1.9-22.9
	c0,0,0-34.3-32.4-30.5C350.5,224.5,350.5,256.9,350.5,256.9"/>
<path class="st2" d="M375.3,251.1c0,0-7.6-5.7-17.1,3.8"/>
<path class="st2" d="M388.6,251.1c0,0,7.6-3.8,15.2,3.8"/>
<circle class="st21" cx="394.3" cy="260.7" r="2.9"/>
<circle class="st21" cx="367.7" cy="260.7" r="2.9"/>
<polyline class="st2" points="379.1,268.3 379.1,274 382.9,274 "/>
<path class="st20" d="M369.6,279.7h22.9v2.1c0,0-6.2,4.2-10.4,4.2s-12.5-4.2-12.5-4.2V279.7z"/>
<path class="st3" d="M340.8,256.1l9.7,10.3l0.2-12.3c0,0,5.6-6.9,7.5-19.2c0,0,20.9,16.2,45.7,10.5l9.5,13.3l-0.6,4.9
	c0,0,4.4-6.8,8.2-4.9l5-4.7c0,0-10.7-20-12.6-25.8c-1.9-5.7-12.1-21.4-28.9-19.3c0,0-22.5-1.7-39.7,21.2l-1.9,22.9L340.8,256.1z"/>
<path class="st8" d="M661.1,283.5c0,0,7.6,24.8,30.5,26.7c0,0,19.1,0,28.6-24.8l3.8-21c0,0,11.4-55.3-34.3-51.4
	c-45.7,3.8-32.4,53.4-32.4,53.4L661.1,283.5z"/>
<path class="st14" d="M689.7,272.1v7.6c0,0,3.8,1.9,3.8-1.9"/>
<path class="st2" d="M699.2,251.1c0,0,9.5-5.7,15.2,1.9"/>
<path class="st2" d="M682.1,251.1c0,0-9.5-3.8-15.2,1.9"/>
<path class="st22" d="M680.2,283.5h21v1.9c0,0-5.7,3.8-9.5,3.8s-11.4-3.8-11.4-3.8V283.5z"/>
<path class="st3" d="M712.6,237.8c0,0-22.9,13.3-45.7,11.4l-10.5,20c0,0-9.5-38.1,13.3-51.4c0,0,9.5-9.6,28.6-7.6
	c0,0,1-21.9,16.2-21.9c0,0,19.1-7.6,28.6,17.1c0,0,5.7,24.6-18.1,27.6c0,0,3.8,15.2,0,34.3C724.9,267.3,710.7,243.5,712.6,237.8z"/>
<g>
	<line class="st2" x1="658.8" y1="267.2" x2="663.4" y2="267.3"/>
	<line class="st2" x1="687.4" y1="267.3" x2="695.2" y2="267.3"/>
	<line class="st2" x1="716.8" y1="267.3" x2="723" y2="267.3"/>
	<ellipse class="st2" cx="706" cy="266.6" rx="11.6" ry="12.6"/>
	<ellipse class="st2" cx="675.8" cy="267.3" rx="12.4" ry="13.3"/>
</g>
<ellipse class="st21" cx="677.3" cy="266.4" rx="1.9" ry="2.9"/>
<ellipse class="st21" cx="705.9" cy="266.4" rx="1.9" ry="2.9"/>
<path class="st23" d="M506.7,278.7l0,41c0,0-87.7,24.8-120,102.9c0,0,45.7,49.5,57.2,45.7l9.5-5.7v127.7h171.5V474.1
	c0,0,41.9,0,57.2-11.4c0,0,3.8-101-120-141v-44.4L506.7,278.7z"/>
<path class="st8" d="M579.2,329.3c0,0-5.7,24.8-43.8,22.9c0,0-41.9,1.2-45.7-26.1l17.1-6.3V275H562v46.7c0,0,10.4,3.4,15.2,5.7
	L579.2,329.3z"/>
<path class="st3" d="M507.7,278.9c0,12.9,11.5,23.4,25.7,23.4s27.6-10.5,27.6-23.4s-13.4-23.4-27.6-23.4S507.7,266,507.7,278.9z"/>
<ellipse class="st8" cx="491.5" cy="250.2" rx="11.4" ry="12.4"/>
<ellipse class="st8" cx="575.4" cy="248.3" rx="11.4" ry="12.4"/>
<path class="st2" d="M581.1,245.4c0,0-7.6,1.9-11.4,7.6"/>
<path class="st2" d="M485.8,245.4c0,0,7.6,1.9,11.4,7.6"/>
<path class="st8" d="M493.4,241.6c0,0,7.6,55.3,40,51.4c0,0,36.2,1.9,40-53.4c0,0,11.4-53.4-41.9-51.4
	C497.2,194,483.7,196.7,493.4,241.6z"/>
<ellipse class="st21" cx="516.3" cy="236.8" rx="2.9" ry="3.8"/>
<ellipse class="st21" cx="550.6" cy="236.8" rx="2.9" ry="3.8"/>
<g>
	<line class="st2" x1="493.4" y1="237.6" x2="499.1" y2="237.8"/>
	<line class="st2" x1="528.7" y1="237.8" x2="538.2" y2="237.8"/>
	<line class="st2" x1="564.9" y1="237.8" x2="572.5" y2="237.8"/>
	<ellipse class="st2" cx="551.5" cy="236.8" rx="14.3" ry="16.2"/>
	<ellipse class="st2" cx="514.4" cy="237.8" rx="15.2" ry="17.1"/>
</g>
<path class="st2" d="M501,222.6c0,0,9.5-9.5,21-5.7"/>
<path class="st2" d="M562,222.6c0,0-9.5-9.5-21-5.7"/>
<path class="st2" d="M520.1,258.8c0,0,9.5,7.6,26.7,0"/>
<path class="st2" d="M531.5,241.6v9.5c0,0,1.9,3.8,5.7,0"/>
<path class="st3" d="M525.8,171.1c47.6-3.8,55.3,22.9,53.4,36.2s-3.8,32.4-3.8,32.4h-1.9c0,0,3.8-34.3-15.2-43.8
	c0,0-32.4-1.9-49.5,0s-13.3,11.4-15.2,22.9v21c0,0-9.5-34.3-5.7-45.7C491.5,182.5,492.6,173.8,525.8,171.1z"/>
<path class="st8" d="M668.3,468.8l0.4,157.7H623V474.1C623,474.1,645,475,668.3,468.8z"/>
<path class="st9" d="M622,486.5c0,0,33.4-2.9,47.6-10.5v-6.4c0,0-39.5,4.5-47.6,4.5V486.5z"/>
<line class="st2" x1="706.8" y1="542.7" x2="670.6" y2="542.7"/>
<path class="st17" d="M939.9,352.1h-83c-4.4,0-7.9-3.5-7.9-7.9v-71.9c0-4.4,3.5-7.9,7.9-7.9h83c4.4,0,7.9,3.5,7.9,7.9v71.9
	C947.8,348.6,944.2,352.1,939.9,352.1z"/>
<rect x="874.5" y="289.3" class="st24" width="47.6" height="32.4"/>
<polygon class="st24" points="897.5,307.4 919.8,290.2 876.9,290.2 "/>
<path class="st4" d="M251.4,522.7H104.7c-7.9,0-14.3-6.4-14.3-14.3V380.7c0-7.9,6.4-14.3,14.3-14.3h146.7c7.9,0,14.3,6.4,14.3,14.3
	v127.7C265.7,516.3,259.3,522.7,251.4,522.7z"/>
<path class="st11" d="M218.3,493.6h-83.7c-4.8,0-8.6-3.9-8.6-8.6v-81.7c0-4.8,3.9-8.6,8.6-8.6h83.7c4.8,0,8.6,3.9,8.6,8.6v81.7
	C226.9,489.7,223,493.6,218.3,493.6z"/>
<g>
	<g>
		<path class="st20" d="M175.9,415.5c15.7,0,28.5,12.8,28.5,28.5s-12.8,28.5-28.5,28.5s-28.5-12.8-28.5-28.5
			S160.2,415.5,175.9,415.5 M175.9,414.5c-16.3,0-29.5,13.2-29.5,29.5s13.2,29.5,29.5,29.5s29.5-13.2,29.5-29.5
			S192.2,414.5,175.9,414.5L175.9,414.5z"/>
	</g>
	<path class="st24" d="M170.2,415.5c0,0-19.1,22.9,1.9,57.2"/>
	<path class="st24" d="M181.3,415.5c0,0,19.1,22.9-1.9,57.2"/>
	<line class="st24" x1="153.1" y1="428.8" x2="200.7" y2="428.8"/>
	<line class="st24" x1="147.3" y1="444.1" x2="206.4" y2="444.1"/>
	<line class="st24" x1="149.2" y1="457.4" x2="200.7" y2="457.4"/>
</g>
</svg>
