<?xml version="1.0" encoding="utf-8"?>
<!-- Generator: Adobe Illustrator 22.0.1, SVG Export Plug-In . SVG Version: 6.00 Build 0)  -->
<svg version="1.1" id="_x32_71e5882-3c8d-41ed-8a0a-1cb2b4d0cbc1"
	 xmlns="http://www.w3.org/2000/svg" xmlns:xlink="http://www.w3.org/1999/xlink" x="0px" y="0px" viewBox="0 0 1137.7 859.7"
	 style="enable-background:new 0 0 1137.7 859.7;" xml:space="preserve">
<style type="text/css">
	.st0{fill:#DEDEDE;}
	.st1{fill:#D7D7D7;}
	.st2{fill:#B6B6B6;}
	.st3{opacity:0.43;}
	.st4{fill:url(#SVGID_1_);}
	.st5{opacity:0.22;}
	.st6{fill:url(#SVGID_2_);}
	.st7{fill:url(#SVGID_3_);}
	.st8{fill:url(#SVGID_4_);}
	.st9{fill:url(#SVGID_5_);}
	.st10{fill:#E3835A;}
	.st11{fill:#3864B0;}
	.st12{fill:#2D4F88;}
	.st13{fill:url(#SVGID_6_);}
	.st14{fill:#FFFFFF;}
	.st15{filter:url(#Adobe_OpacityMaskFilter);}
	.st16{filter:url(#Adobe_OpacityMaskFilter_1_);}
	.st17{mask:url(#SVGID_7_);fill:url(#SVGID_8_);}
	.st18{fill:url(#SVGID_9_);}
	.st19{filter:url(#Adobe_OpacityMaskFilter_2_);}
	.st20{filter:url(#Adobe_OpacityMaskFilter_3_);}
	.st21{mask:url(#SVGID_10_);fill:url(#SVGID_11_);}
	.st22{fill:url(#SVGID_12_);}
	.st23{filter:url(#Adobe_OpacityMaskFilter_4_);}
	.st24{filter:url(#Adobe_OpacityMaskFilter_5_);}
	.st25{mask:url(#SVGID_13_);fill:url(#SVGID_14_);}
	.st26{fill:url(#SVGID_15_);}
	.st27{filter:url(#Adobe_OpacityMaskFilter_6_);}
	.st28{filter:url(#Adobe_OpacityMaskFilter_7_);}
	.st29{mask:url(#SVGID_16_);fill:url(#SVGID_17_);}
	.st30{fill:url(#SVGID_18_);}
	.st31{fill:url(#SVGID_19_);}
	.st32{opacity:0.76;}
	.st33{fill:url(#SVGID_20_);}
	.st34{fill:url(#SVGID_21_);}
	.st35{fill:url(#SVGID_22_);}
	.st36{fill:url(#SVGID_23_);}
	.st37{fill:url(#SVGID_24_);}
	.st38{fill:#457AD9;}
	.st39{fill:url(#SVGID_25_);}
	.st40{fill:url(#SVGID_26_);}
	.st41{fill:url(#SVGID_27_);}
	.st42{fill:url(#SVGID_28_);}
	.st43{fill:#DBA585;}
	.st44{fill:#C99A7D;}
	.st45{fill:#4F5481;}
	.st46{fill:#DCA787;}
	.st47{fill:#E3D6CD;}
	.st48{fill:#C8995F;}
	.st49{fill:#454971;}
	.st50{fill:#2E3048;}
	.st51{fill:#393D3F;}
	.st52{fill:#DCD0C8;}
	.st53{fill:#363957;}
	.st54{fill:#807F7D;}
	.st55{fill:#323436;}
	.st56{fill:#D7C9C2;}
	.st57{fill:#4C5155;}
	.st58{fill:#997761;}
	.st59{fill:#263643;}
	.st60{fill:#404347;}
	.st61{fill:#53575C;}
	.st62{fill:#EEE0D7;}
	.st63{fill:#A79D97;}
	.st64{fill:#6C7279;}
	.st65{fill:#D2C7C0;}
</style>
<title>team spirit</title>
<g>
	<g>
		<rect x="490.4" y="420.1" class="st0" width="2.5" height="266.4"/>
	</g>
	<g>
		<rect x="670.9" y="420.1" class="st0" width="2.5" height="266.4"/>
	</g>
	<g>
		<rect x="851.5" y="420.1" class="st0" width="2.5" height="266.4"/>
	</g>
	<rect x="311.2" y="387.3" class="st1" width="43.2" height="6.9"/>
	<rect x="311.2" y="400.2" class="st1" width="61.3" height="6.9"/>
	<rect x="489.7" y="387.3" class="st1" width="50.8" height="6.9"/>
	<rect x="489.7" y="400.2" class="st1" width="32.5" height="6.9"/>
	<rect x="673.5" y="387.3" class="st1" width="31.5" height="6.9"/>
	<rect x="673.5" y="400.2" class="st1" width="36.7" height="6.9"/>
	<rect x="854" y="387.3" class="st1" width="45.8" height="6.9"/>
	<rect x="854" y="400.2" class="st1" width="36.7" height="6.9"/>
	<rect x="491.7" y="702.3" class="st2" width="28.7" height="9.3"/>
	<rect x="673.5" y="702.3" class="st2" width="28.7" height="9.3"/>
	<rect x="854" y="702.3" class="st2" width="28.7" height="9.3"/>
	<rect x="1034.5" y="702.3" class="st2" width="28.7" height="9.3"/>
	<g class="st3">
		<linearGradient id="SVGID_1_" gradientUnits="userSpaceOnUse" x1="311.1534" y1="548.2943" x2="1033.2743" y2="548.2943">
			<stop  offset="0" style="stop-color:#EEBE63"/>
			<stop  offset="1" style="stop-color:#DC3B57"/>
		</linearGradient>
		<path class="st4" d="M970.7,607.4c-56.3,0-105.3-24.3-156.3-49.7c-63-31.3-128.1-63.7-214.9-54.9c-55.4,5.7-90.2,28.2-120.9,48.1
			c-27.8,18-54.1,33.9-89.6,35.2c-57.5,2.2-77.5-22.3-77.8-23.8v-15.7l0,0l0,0c0.1,0.3,12.6,27.8,77.7,27.5
			c32.1-0.2,55.7-15.5,83.1-33.3c31.8-20.7,67.9-44.1,126.3-50c90.3-9.2,157,24,221.6,56.1c67.5,33.6,132,65.1,213.5,37.8v12.9
			C1010,605.3,991.5,607.4,970.7,607.4z"/>
	</g>
	<g class="st5">
		<linearGradient id="SVGID_2_" gradientUnits="userSpaceOnUse" x1="311.1534" y1="528.7538" x2="1033.6555" y2="528.7538">
			<stop  offset="0" style="stop-color:#81D3E4"/>
			<stop  offset="1" style="stop-color:#6076FA"/>
		</linearGradient>
		<path class="st6" d="M632.7,604.4c-41.6,0-74.5-28-106.8-55.3c-24.5-20.7-49.9-42-79.2-52.4c-89.4-31.9-135.2,26.4-135.6,26.9
			v-17.7c0.5-0.6,8.6-11.2,32.3-21.3c21.5-9.2,57.6-16.6,107.3,0.7c31.5,11,57.7,33.2,83,54.6c51.4,43.5,95.7,81.1,172.7,22.2
			c58.3-44.6,113.3-87.1,167.4-102.7c52.9-15.2,108.1-4.1,159.7,47.6l-0.4,16.1c-109.7-110.2-203.1-40.4-319.5,48.6
			C683,595.2,656.5,604.4,632.7,604.4z"/>
	</g>
</g>
<g>
	<linearGradient id="SVGID_3_" gradientUnits="userSpaceOnUse" x1="719.2433" y1="299.8213" x2="976.7892" y2="299.8213">
		<stop  offset="0" style="stop-color:#A5D4FC"/>
		<stop  offset="1" style="stop-color:#CBE9FC"/>
	</linearGradient>
	<polygon class="st7" points="721.1,356.5 719.2,354.4 749.7,328.4 768.1,328.4 810,292.8 836.2,315.1 855.6,315.1 865.3,323.4 
		895.7,297.5 911.1,297.5 975,243.1 976.8,245.3 912.1,300.4 896.7,300.4 865.3,327.1 854.5,317.9 835.2,317.9 810,296.5 
		769.2,331.3 750.7,331.3 	"/>
</g>
<g>
	<linearGradient id="SVGID_4_" gradientUnits="userSpaceOnUse" x1="714.9595" y1="266.7532" x2="971.6721" y2="266.7532">
		<stop  offset="0" style="stop-color:#A5D4FC"/>
		<stop  offset="1" style="stop-color:#CBE9FC"/>
	</linearGradient>
	<polygon class="st8" points="725.5,320.7 715,320.7 715,317.9 724.3,317.9 740.1,302.1 751.6,313.6 779,286.2 787.4,294.6 
		815.2,266.8 831.8,283.5 850.8,283.5 880.1,254.2 905.4,254.2 924.1,235.5 947,235.5 969.7,212.8 971.7,214.8 948.1,238.3 
		925.3,238.3 906.6,257 881.3,257 852,286.3 830.7,286.3 815.2,270.8 787.4,298.6 779,290.2 751.6,317.6 740.1,306.1 	"/>
</g>
<linearGradient id="SVGID_5_" gradientUnits="userSpaceOnUse" x1="762.691" y1="185.2312" x2="617.5342" y2="598.7919">
	<stop  offset="0" style="stop-color:#C5C9CD"/>
	<stop  offset="1" style="stop-color:#F5F0FC"/>
</linearGradient>
<path class="st9" d="M1006.1,327.1c0-0.1,0-0.1-0.1-0.2c-27-94.3-94.5-174.8-187.7-216.3h0c-16-7.2-32.7-13.1-50.1-17.8
	c-43.5-11.7-87.4-14.4-129.5-9.1c0,0-0.1,0-0.1,0l-0.1,0c-28.4,3.5-56,10.6-82.2,21c-0.1,0-0.1,0-0.2,0.1
	C459.8,142.7,382.1,224.3,353.1,332c-48.6,180.7,58.4,366.6,239.1,415.2c92.8,25,186.9,8.9,263.1-37.1l14.2,19.8l67.1-48.3
	l-16.2-22.5c40.4-40.5,71.1-91.8,87-151C1024,446.5,1022.5,384.3,1006.1,327.1z M758.1,636.7c-119.8,42.9-251.7-19.4-294.6-139.2
	C421.3,380,480.5,250.7,596,205.4c2.2-0.9,4.4-1.7,6.6-2.5c16.3-5.9,32.9-9.8,49.4-11.8c42.4-5.3,84.6,1.5,122.2,18.3
	c55.3,24.7,100.9,71.1,122.9,132.6c1.7,4.8,3.3,9.7,4.7,14.6C935,472.4,873,595.5,758.1,636.7z"/>
<g>
	<path class="st10" d="M1072.9,307.9l-66.8,19l-104.2,29.7c-1.4-4.9-3-9.7-4.7-14.6c-22.1-61.6-67.6-107.9-122.9-132.6l44.1-98.8h0
		l4.6-10.4l23.7-53.1C959.1,97.2,1040.4,194.3,1072.9,307.9z"/>
</g>
<g>
	<path class="st11" d="M823,100.3l-4.6,10.4l-44.1,98.8c-37.7-16.8-79.8-23.6-122.2-18.3L638.8,83.7l-1.4-11.3
		c43.6-5.4,88.9-2.7,133.9,9.4C789.2,86.7,806.5,92.9,823,100.3z"/>
</g>
<g>
	<path class="st12" d="M652.1,191.1c-16.5,2.1-33.1,6-49.4,11.8c-2.2,0.8-4.4,1.6-6.6,2.5l-39.6-100.7l-12-30.5
		c28.8-11.4,59.1-19.2,90.3-23.1l0.1,0l2.6,21.3l1.4,11.3L652.1,191.1z"/>
</g>
<linearGradient id="SVGID_6_" gradientUnits="userSpaceOnUse" x1="838.7333" y1="609.2233" x2="1097.6774" y2="975.8188">
	<stop  offset="0" style="stop-color:#C5C9CD"/>
	<stop  offset="1" style="stop-color:#F5F0FC"/>
</linearGradient>
<polygon class="st13" points="1084.6,859.7 951,859.7 858.2,734.4 901.8,703.9 946.2,672.8 968.3,702.7 "/>
<g>
	
		<rect x="1015.1" y="633.4" transform="matrix(-1 -1.224647e-16 1.224647e-16 -1 2066.7224 1269.3535)" class="st14" width="36.5" height="2.6"/>
	
		<rect x="1015.1" y="638.2" transform="matrix(-1 -1.224647e-16 1.224647e-16 -1 2066.7224 1287.1737)" class="st14" width="36.5" height="10.7"/>
	
		<rect x="998" y="652.6" transform="matrix(-1 -1.224647e-16 1.224647e-16 -1 2017.5245 1306.7474)" class="st14" width="21.5" height="1.6"/>
	
		<rect x="998" y="654.9" transform="matrix(-1 -1.224647e-16 1.224647e-16 -1 2017.5245 1314.106)" class="st14" width="21.5" height="4.3"/>
	
		<rect x="1057.6" y="619.6" transform="matrix(-1 -1.224647e-16 1.224647e-16 -1 2116.7566 1269.3527)" class="st14" width="1.6" height="30.1"/>
</g>
<defs>
	<filter id="Adobe_OpacityMaskFilter" filterUnits="userSpaceOnUse" x="57.5" y="416.1" width="45.8" height="22.3">
		<feFlood  style="flood-color:white;flood-opacity:1" result="back"/>
		<feBlend  in="SourceGraphic" in2="back" mode="normal"/>
	</filter>
</defs>
<mask maskUnits="userSpaceOnUse" x="57.5" y="416.1" width="45.8" height="22.3" id="SVGID_7_">
	<g class="st15">
		<defs>
			<filter id="Adobe_OpacityMaskFilter_1_" filterUnits="userSpaceOnUse" x="57.5" y="416.1" width="45.8" height="22.3">
				<feFlood  style="flood-color:white;flood-opacity:1" result="back"/>
				<feBlend  in="SourceGraphic" in2="back" mode="normal"/>
			</filter>
		</defs>
		<mask maskUnits="userSpaceOnUse" x="57.5" y="416.1" width="45.8" height="22.3" id="SVGID_7_">
			<g class="st16">
			</g>
		</mask>
		<linearGradient id="SVGID_8_" gradientUnits="userSpaceOnUse" x1="78.1423" y1="318.329" x2="81.9979" y2="504.6776">
			<stop  offset="0" style="stop-color:#FFFFFF"/>
			<stop  offset="1" style="stop-color:#000000"/>
		</linearGradient>
		<polygon class="st17" points="68.2,438.3 103.3,438.3 92.6,416.1 57.5,416.1 		"/>
	</g>
</mask>
<linearGradient id="SVGID_9_" gradientUnits="userSpaceOnUse" x1="78.1423" y1="318.329" x2="81.9979" y2="504.6776">
	<stop  offset="0" style="stop-color:#81D3E4"/>
	<stop  offset="1" style="stop-color:#6076FA"/>
</linearGradient>
<polygon class="st18" points="68.2,438.3 103.3,438.3 92.6,416.1 57.5,416.1 "/>
<defs>
	<filter id="Adobe_OpacityMaskFilter_2_" filterUnits="userSpaceOnUse" x="41.1" y="416.1" width="19.1" height="22.3">
		<feFlood  style="flood-color:white;flood-opacity:1" result="back"/>
		<feBlend  in="SourceGraphic" in2="back" mode="normal"/>
	</filter>
</defs>
<mask maskUnits="userSpaceOnUse" x="41.1" y="416.1" width="19.1" height="22.3" id="SVGID_10_">
	<g class="st19">
		<defs>
			<filter id="Adobe_OpacityMaskFilter_3_" filterUnits="userSpaceOnUse" x="41.1" y="416.1" width="19.1" height="22.3">
				<feFlood  style="flood-color:white;flood-opacity:1" result="back"/>
				<feBlend  in="SourceGraphic" in2="back" mode="normal"/>
			</filter>
		</defs>
		<mask maskUnits="userSpaceOnUse" x="41.1" y="416.1" width="19.1" height="22.3" id="SVGID_10_">
			<g class="st20">
			</g>
		</mask>
		<linearGradient id="SVGID_11_" gradientUnits="userSpaceOnUse" x1="48.4059" y1="318.9443" x2="52.2615" y2="505.2928">
			<stop  offset="0" style="stop-color:#FFFFFF"/>
			<stop  offset="1" style="stop-color:#000000"/>
		</linearGradient>
		<polygon class="st21" points="51.8,438.3 60.2,438.3 49.5,416.1 41.1,416.1 		"/>
	</g>
</mask>
<linearGradient id="SVGID_12_" gradientUnits="userSpaceOnUse" x1="48.4059" y1="318.9443" x2="52.2615" y2="505.2928">
	<stop  offset="0" style="stop-color:#81D3E4"/>
	<stop  offset="1" style="stop-color:#6076FA"/>
</linearGradient>
<polygon class="st22" points="51.8,438.3 60.2,438.3 49.5,416.1 41.1,416.1 "/>
<defs>
	<filter id="Adobe_OpacityMaskFilter_4_" filterUnits="userSpaceOnUse" x="993.9" y="23.2" width="38.9" height="15">
		<feFlood  style="flood-color:white;flood-opacity:1" result="back"/>
		<feBlend  in="SourceGraphic" in2="back" mode="normal"/>
	</filter>
</defs>
<mask maskUnits="userSpaceOnUse" x="993.9" y="23.2" width="38.9" height="15" id="SVGID_13_">
	<g class="st23">
		<defs>
			<filter id="Adobe_OpacityMaskFilter_5_" filterUnits="userSpaceOnUse" x="993.9" y="23.2" width="38.9" height="15">
				<feFlood  style="flood-color:white;flood-opacity:1" result="back"/>
				<feBlend  in="SourceGraphic" in2="back" mode="normal"/>
			</filter>
		</defs>
		<mask maskUnits="userSpaceOnUse" x="993.9" y="23.2" width="38.9" height="15" id="SVGID_13_">
			<g class="st24">
			</g>
		</mask>
		<linearGradient id="SVGID_14_" gradientUnits="userSpaceOnUse" x1="1034.6857" y1="-49.3651" x2="989.9749" y2="117.8865">
			<stop  offset="0" style="stop-color:#FFFFFF"/>
			<stop  offset="1" style="stop-color:#000000"/>
		</linearGradient>
		<polygon class="st25" points="993.9,38.2 1032.7,38.2 1032.7,23.2 993.9,23.2 		"/>
	</g>
</mask>
<linearGradient id="SVGID_15_" gradientUnits="userSpaceOnUse" x1="1034.6857" y1="-49.3651" x2="989.9749" y2="117.8865">
	<stop  offset="0" style="stop-color:#81D3E4"/>
	<stop  offset="1" style="stop-color:#6076FA"/>
</linearGradient>
<polygon class="st26" points="993.9,38.2 1032.7,38.2 1032.7,23.2 993.9,23.2 "/>
<defs>
	<filter id="Adobe_OpacityMaskFilter_6_" filterUnits="userSpaceOnUse" x="993.9" y="16.2" width="38.9" height="2.8">
		<feFlood  style="flood-color:white;flood-opacity:1" result="back"/>
		<feBlend  in="SourceGraphic" in2="back" mode="normal"/>
	</filter>
</defs>
<mask maskUnits="userSpaceOnUse" x="993.9" y="16.2" width="38.9" height="2.8" id="SVGID_16_">
	<g class="st27">
		<defs>
			<filter id="Adobe_OpacityMaskFilter_7_" filterUnits="userSpaceOnUse" x="993.9" y="16.2" width="38.9" height="2.8">
				<feFlood  style="flood-color:white;flood-opacity:1" result="back"/>
				<feBlend  in="SourceGraphic" in2="back" mode="normal"/>
			</filter>
		</defs>
		<mask maskUnits="userSpaceOnUse" x="993.9" y="16.2" width="38.9" height="2.8" id="SVGID_16_">
			<g class="st28">
			</g>
		</mask>
		<linearGradient id="SVGID_17_" gradientUnits="userSpaceOnUse" x1="1028.1317" y1="-37.9286" x2="993.5038" y2="91.6057">
			<stop  offset="0" style="stop-color:#FFFFFF"/>
			<stop  offset="1" style="stop-color:#000000"/>
		</linearGradient>
		<polygon class="st29" points="993.9,19 1032.7,19 1032.7,16.2 993.9,16.2 		"/>
	</g>
</mask>
<linearGradient id="SVGID_18_" gradientUnits="userSpaceOnUse" x1="1028.1317" y1="-37.9286" x2="993.5038" y2="91.6057">
	<stop  offset="0" style="stop-color:#81D3E4"/>
	<stop  offset="1" style="stop-color:#6076FA"/>
</linearGradient>
<polygon class="st30" points="993.9,19 1032.7,19 1032.7,16.2 993.9,16.2 "/>
<linearGradient id="SVGID_19_" gradientUnits="userSpaceOnUse" x1="286.4974" y1="560.3693" x2="286.4974" y2="1701.5056">
	<stop  offset="0" style="stop-color:#4E607B"/>
	<stop  offset="1" style="stop-color:#F4F4F4"/>
</linearGradient>
<path class="st31" d="M398.7,711.9H174.3c-13.9,0-25.1-11.2-25.1-25.1V412c0-13.9,11.2-25.1,25.1-25.1h224.5
	c13.9,0,25.1,11.2,25.1,25.1v274.8C423.8,700.7,412.6,711.9,398.7,711.9z"/>
<g class="st32">
	<g>
		<g>
			<path class="st14" d="M247.4,437.3c-6-16.8-22-27-38.9-26.5c-4.1,0.1-8.2,0.9-12.3,2.3c-12.3,4.4-21.1,14.2-24.7,25.8
				c-2.5,8-2.5,16.9,0.5,25.4c0.3,0.8,0.6,1.7,1,2.5c1.6,3.7,3.7,7,6.2,10c10.5,12.3,27.9,17.5,44,11.8
				C244.1,481,254.9,458.1,247.4,437.3z M219.9,479c-12.1,4.3-25.1,0.4-33-8.8c-1.9-2.2-3.4-4.7-4.7-7.5c-0.3-0.6-0.5-1.2-0.7-1.9
				c-2.3-6.4-2.3-13-0.4-19c2.7-8.7,9.3-16,18.5-19.3c3-1.1,6.1-1.7,9.2-1.7c12.7-0.4,24.7,7.3,29.2,19.9
				C243.6,456.3,235.5,473.4,219.9,479z"/>
		</g>
	</g>
</g>
<linearGradient id="SVGID_20_" gradientUnits="userSpaceOnUse" x1="286.4974" y1="313.8764" x2="286.4974" y2="1114.0201">
	<stop  offset="0" style="stop-color:#656E79"/>
	<stop  offset="1" style="stop-color:#F4F4F4"/>
</linearGradient>
<path class="st33" d="M413.1,363.5H159.9c-5.9,0-10.7-4.8-10.7-10.7v-2.7c0-5.9,4.8-10.7,10.7-10.7h253.3c5.9,0,10.7,4.8,10.7,10.7
	v2.7C423.8,358.7,419,363.5,413.1,363.5z"/>
<g>
	<g>
		<g>
			<g>
				<g>
					<polygon class="st14" points="324.4,557.2 366.3,559.5 399.8,513.4 397.5,511.8 365,556.7 323.2,554.3 275.3,608.9 
						225.1,598.1 175.5,644.8 177.5,646.9 226,601.1 276.3,612 					"/>
				</g>
			</g>
		</g>
	</g>
	<g>
		<g>
			<g>
				<path class="st14" d="M283.1,608.9c0.9,4-1.7,8-5.7,8.9c-4,0.9-8-1.7-8.9-5.7c-0.9-4,1.7-8,5.7-8.9
					C278.2,602.3,282.2,604.9,283.1,608.9z"/>
			</g>
		</g>
	</g>
	<g>
		<g>
			<g>
				<path class="st14" d="M331.1,554.6c0.9,4-1.7,8-5.7,8.9c-4,0.9-8-1.7-8.9-5.7c-0.9-4,1.7-8,5.7-8.9
					C326.2,548.1,330.2,550.6,331.1,554.6z"/>
			</g>
		</g>
	</g>
	<g>
		<g>
			<g>
				<path class="st14" d="M372.5,556.3c0.9,4-1.7,8-5.7,8.9c-4,0.9-8-1.7-8.9-5.7c-0.9-4,1.7-8,5.7-8.9
					C367.7,549.7,371.7,552.3,372.5,556.3z"/>
			</g>
		</g>
	</g>
	<g>
		<g>
			<g>
				<path class="st14" d="M232.8,598.7c0.9,4-1.7,8-5.7,8.9c-4,0.9-8-1.7-8.9-5.7c-0.9-4,1.7-8,5.7-8.9
					C227.9,592.1,231.9,594.7,232.8,598.7z"/>
			</g>
		</g>
	</g>
</g>
<g>
	<rect x="218" y="628" class="st14" width="30.5" height="5.9"/>
</g>
<g>
	<rect x="239.2" y="567.7" class="st14" width="30.5" height="5.9"/>
</g>
<g>
	<rect x="302.5" y="609.7" class="st14" width="30.5" height="5.9"/>
</g>
<g>
	<rect x="329.8" y="527.3" class="st14" width="30.5" height="5.9"/>
</g>
<g>
	<rect x="374.1" y="576.4" class="st14" width="30.5" height="5.9"/>
</g>
<g>
	<g>
		<linearGradient id="SVGID_21_" gradientUnits="userSpaceOnUse" x1="274.1171" y1="465.6971" x2="283.1519" y2="465.6971">
			<stop  offset="0" style="stop-color:#D7E2FD"/>
			<stop  offset="1" style="stop-color:#F1FFFD"/>
		</linearGradient>
		<rect x="274.1" y="440.6" class="st34" width="9" height="50.2"/>
	</g>
	<g>
		<linearGradient id="SVGID_22_" gradientUnits="userSpaceOnUse" x1="289.9799" y1="459.0022" x2="299.015" y2="459.0022">
			<stop  offset="0" style="stop-color:#D7E2FD"/>
			<stop  offset="1" style="stop-color:#F1FFFD"/>
		</linearGradient>
		<rect x="290" y="427.2" class="st35" width="9" height="63.6"/>
	</g>
	<g>
		<linearGradient id="SVGID_23_" gradientUnits="userSpaceOnUse" x1="306.6262" y1="462.5047" x2="315.6615" y2="462.5047">
			<stop  offset="0" style="stop-color:#D7E2FD"/>
			<stop  offset="1" style="stop-color:#F1FFFD"/>
		</linearGradient>
		<rect x="306.6" y="434.2" class="st36" width="9" height="56.6"/>
	</g>
	<g>
		<linearGradient id="SVGID_24_" gradientUnits="userSpaceOnUse" x1="323.7298" y1="470.6364" x2="332.7649" y2="470.6364">
			<stop  offset="0" style="stop-color:#D7E2FD"/>
			<stop  offset="1" style="stop-color:#F1FFFD"/>
		</linearGradient>
		<rect x="323.7" y="450.5" class="st37" width="9" height="40.3"/>
	</g>
	<g>
		<rect x="274.1" y="459" class="st38" width="9" height="31.9"/>
	</g>
	<g>
		<rect x="290" y="450.5" class="st38" width="9" height="40.3"/>
	</g>
	<g>
		<rect x="306.6" y="454.9" class="st38" width="9" height="35.9"/>
	</g>
	<g>
		<rect x="323.7" y="465.7" class="st38" width="9" height="25.1"/>
	</g>
</g>
<g>
	<g>
		<linearGradient id="SVGID_25_" gradientUnits="userSpaceOnUse" x1="341.1407" y1="473.9614" x2="350.1758" y2="473.9614">
			<stop  offset="0" style="stop-color:#D7E2FD"/>
			<stop  offset="1" style="stop-color:#F1FFFD"/>
		</linearGradient>
		<rect x="341.1" y="457.1" class="st39" width="9" height="33.7"/>
	</g>
	<g>
		<linearGradient id="SVGID_26_" gradientUnits="userSpaceOnUse" x1="357.0038" y1="461.5697" x2="366.0389" y2="461.5697">
			<stop  offset="0" style="stop-color:#D7E2FD"/>
			<stop  offset="1" style="stop-color:#F1FFFD"/>
		</linearGradient>
		<rect x="357" y="432.3" class="st40" width="9" height="58.5"/>
	</g>
	<g>
		<linearGradient id="SVGID_27_" gradientUnits="userSpaceOnUse" x1="373.65" y1="466.9332" x2="382.6849" y2="466.9332">
			<stop  offset="0" style="stop-color:#D7E2FD"/>
			<stop  offset="1" style="stop-color:#F1FFFD"/>
		</linearGradient>
		<rect x="373.7" y="443.1" class="st41" width="9" height="47.8"/>
	</g>
	<g>
		<linearGradient id="SVGID_28_" gradientUnits="userSpaceOnUse" x1="390.7534" y1="453.9236" x2="399.7885" y2="453.9236">
			<stop  offset="0" style="stop-color:#D7E2FD"/>
			<stop  offset="1" style="stop-color:#F1FFFD"/>
		</linearGradient>
		<rect x="390.8" y="417" class="st42" width="9" height="73.8"/>
	</g>
	<g>
		<rect x="341.1" y="472.9" class="st38" width="9" height="18"/>
	</g>
	<g>
		<rect x="357" y="464.1" class="st38" width="9" height="26.8"/>
	</g>
	<g>
		<rect x="373.7" y="466.9" class="st38" width="9" height="23.9"/>
	</g>
	<g>
		<rect x="390.8" y="436" class="st38" width="9" height="54.8"/>
	</g>
</g>
<g>
	<g>
		<g>
			<g>
				<path class="st43" d="M119.9,624.4c0,0,1.4,2.3,1.6,4.2c0.1,1.5,1.4,3.7,1.9,4.9c0.5,1.2,2.3,6.8,2.3,8.2c0,0.6-1.3,4.3-1.1,5.5
					c0.2,1.2,0.9,3.5-0.2,3.7c-1.1,0.2-2.3-1.8-2.3-1.8s0.1,1.1-0.8,1.5c-1.8,0.8-2.7,0.1-2.7,0.1s-0.6,1.2-1.5,1.4
					c-1.8,0.4-2.7-0.4-2.7-0.4s-0.8,0.7-2,0.7c-1.6,0-2.3-1.4-2.3-1.4s-2,0.4-2.6-0.5c-0.6-0.9-0.5-1.9-0.7-2.8
					c-0.2-0.8-0.1-8.5,2.5-14.1c2.6-5.5-0.7-10.9-0.7-10.9L119.9,624.4z"/>
			</g>
		</g>
	</g>
	<g>
		<g>
			<path class="st44" d="M122.4,648.4c0,0,0.2-6.9-1.6-8.4c-1.8-1.5-2,1-2,1s0.2-2.5-1.7-2.8c-2-0.3-2.1,2.6-2.1,2.6
				s-0.3-1.9-2.4-1.5c-2.1,0.4-1.6,2.8-1.6,2.8s-2-2.4-3.3-0.1c-2.2,3.8-0.1,8.4-0.1,8.4s0.6,1,2.6,0.5c0,0,1.3,2.7,4.3,0.7
				c0,0,3,1.7,4.1-1C118.6,650.8,122,652.4,122.4,648.4z"/>
		</g>
	</g>
	<path class="st45" d="M143.2,525.2c0,0-11.8,39.3-15.8,53.8c-1.2,4.5-4.3,48-4.8,49.7c-0.5,1.7-15.5,4.1-15.5,4.1s1.8-54.3,2-57.3
		c0.2-3,16.5-63.6,21.2-65.8c3.6-1.6,5.4-0.3,9.9,3C146.6,517.5,143.2,525.2,143.2,525.2z"/>
	<path class="st46" d="M289.3,462.7c0,0-0.3,1.5-0.7,2.1c0,0-0.9,1.1-1.5,1.8c-0.2,0.2-0.3,0.5-0.4,0.6c-0.4,0.6-0.9,2.2-2.2,3.5
		c-1.3,1.3-6.3,5.4-6.3,5.4l-4.3-3.6l-4.5-2c0,0,2.5-10.8,3.5-12.2c0.1-0.1,0.2-0.3,0.3-0.4c1-1.1,2.2-1.4,2.8-1.9
		c0.2-0.2,2.5-1.8,3.3-1.6c1.1,0.3,1.8,1,2.1,1.7c0,0,2.2,0.7,3,2c0,0,2,0.6,2.7,2.5C287.2,460.6,289.3,461.4,289.3,462.7z"/>
	<g>
		<g>
			<path class="st47" d="M206.2,535.7l3-1.1c0,0-3.8-8.9-5.5-8.7c-1.9,0.3-4.3,0.9-4.3,0.9L206.2,535.7z"/>
		</g>
	</g>
	<g>
		<g>
			<path class="st48" d="M206.9,537.3c-0.4-0.3-6.5-12-6.5-12l-13,1.8l7,13.8L206.9,537.3z"/>
		</g>
	</g>
	<g>
		<g>
			<path class="st49" d="M133.7,793.5c0,0-1.1,7.5-1.2,8.6c-0.1,1.1-12-0.7-12-0.7l-1-8.9C119.5,792.5,132.2,792.4,133.7,793.5z"/>
		</g>
	</g>
	<g>
		<g>
			<path class="st50" d="M132.6,801.1c0,0,3.7,4.5,7.4,6.5c3.6,2,9.3,2.7,11.5,4.8c1.5,1.5,5.6,7.8-9.4,7.6
				c-15-0.1-22.3,0.9-23.9-1.5c-1.6-2.4,2.3-17.8,2.3-17.8S124,801.9,132.6,801.1z"/>
		</g>
	</g>
	<g>
		<g>
			<path class="st49" d="M218.3,793.5c0,0-1.1,7.5-1.2,8.6c-0.1,1.1-12-0.7-12-0.7l-1-8.9C204.2,792.5,216.9,792.4,218.3,793.5z"/>
		</g>
	</g>
	<g>
		<g>
			<path class="st50" d="M217.3,801.1c0,0,3.7,4.5,7.4,6.5c3.6,2,17,3.6,19.1,5.6c1.5,1.5,4.1,7.4-17,6.8c-15-0.4-22.3,0.9-23.9-1.5
				c-1.6-2.4,2.3-17.8,2.3-17.8S208.4,802,217.3,801.1z"/>
		</g>
	</g>
	<g>
		<g>
			<path class="st50" d="M143.4,601.8c0,0-11.1,17.6-10.3,33.6c0.8,15.9-4,33.4-5.7,50c-1.9,18.6-9.5,62.5-9.7,72.5
				c-0.3,9.9,1.2,41.7,1.2,41.7l15.2,0.3c0,0,12.8-76.9,16.1-84.7c3.3-7.8,19.7-63.8,20.3-70C171.1,638.9,143.4,601.8,143.4,601.8z"
				/>
		</g>
	</g>
	<g>
		<g>
			<path class="st50" d="M201.9,604.2c0,0,8.4,43.7,9.5,53.5c1.1,9.8,1.8,47.2,2.4,53.3c0.6,6.1,5.2,79.7,6.6,88.9h-19.5
				c0,0-15-53.6-15-79c0-25.4-11.6-55.1-19-71.9c-7.5-16.7-24.5-17.1-29.1-48.2C137.8,600.9,195.7,594.4,201.9,604.2z"/>
		</g>
	</g>
	<g>
		<g>
			<path class="st43" d="M162,453.5c0,0,14.9-5.6,21.8,5.8c6.9,11.3,6.2,34.1-1.3,36.9c-7.5,2.8-18.8,1.3-22.6-5.8
				c-3.8-7.1-7.3-17.4-7.2-24.2C152.8,459.3,158.1,455.5,162,453.5z"/>
		</g>
	</g>
	<g>
		<g>
			<path class="st43" d="M180.8,496.6c0,0-0.6,4,0.4,6c1,2-19.3,2-19.3,2s-1.7-10.8-4.8-19.9C154,475.7,180.8,496.6,180.8,496.6z"/>
		</g>
	</g>
	<g>
		<g>
			<path class="st51" d="M157.1,484.8c0,0,1.4,2.3,7.1,1.4c5.7-0.9,12.7-8.5,15.1-9.4c2.4-0.8,2.4-2.2,2.4-2.2l1.5,2.2l2.5,0.2
				c0,0-2.3-6.8,1.2-9.6c3.5-2.8-3.6-22.1-22-15.6c0,0-14.1,3.9-13.6,11.9C151.9,471.6,154,480.8,157.1,484.8z"/>
		</g>
	</g>
	<g>
		<g>
			<path class="st52" d="M182.4,502.4c0,0-0.1-3.8-1.8-4.2c-1.7-0.4-19-2-21.1-1.2v4.4C159.6,501.5,163.7,504,182.4,502.4z"/>
		</g>
	</g>
	<g>
		<g>
			<path class="st43" d="M181.4,471.7c-0.3-1.3-3.7-5.2-5.1-1.1c-1.3,4.1,2,9.7,3.8,9.2C182,479.3,182.2,475.1,181.4,471.7z"/>
		</g>
	</g>
	<g>
		<g>
			<path class="st53" d="M250.8,547.2C250.8,547.1,250.8,547.1,250.8,547.2C250.9,547.2,250.9,547.2,250.8,547.2z"/>
		</g>
	</g>
	<g>
		<g>
			<path class="st45" d="M210.9,508.1c-11.8-1.6-28.5-5.7-28.5-5.7l-22.8-0.9c0,0-21,4.6-29.2,8.3c-0.8,0.4-0.8,18.7-2.9,23.5
				l6.8,14.4c0,0,4,28.6,4.8,41.3c0.4,5.8-8.2,54.8-8.2,54.8s9.1,2.7,24.7,4.4c15.6,1.7,54.5-0.6,54.8-2.5c0.2-1.8-7.5-68.6-7.9-72
				c-0.5-5.3,1.8-33.5,1.8-33.5c3.6-2.8,35.2-17.5,43.8-25.1c2.3-2,12-11.5,14.8-14.8c9.8-11.6,17.8-21.5,18.8-23.7
				c1.1-1.2-10.7-7.6-11.7-8c-0.9-0.3-14.2,16.9-19.3,22.4c-2.3,2.5-11.7,9.3-11.7,9.3S218.3,508.6,210.9,508.1z"/>
		</g>
	</g>
	<g>
		<g>
			<path class="st51" d="M157.7,454.8c0,0-19,1.5-0.6,30L157.7,454.8z"/>
		</g>
	</g>
</g>
<g>
	<g>
		<path class="st51" d="M399.7,797.6c0,0-4,6-9.6,7.3c-5.6,1.3-11.1,3.4-11.2,6.9c0,3.5,16.2,5.7,22.7,2.1
			c9.6-5.3,10.6-3.7,11.6-6.4c1.1-2.7-1.3-9.8-1.2-10.6C412.1,795.8,399.7,797.6,399.7,797.6z"/>
	</g>
	<g>
		<path class="st54" d="M400.3,794.6c0,0-0.7,2.9-0.6,3c0.1,0.1,12.7,1.6,12.3-0.8c-0.3-1.9-0.7-3.9-0.7-3.9L400.3,794.6z"/>
	</g>
	<g>
		<path class="st51" d="M441.9,797.2c0,0-2.9,5.7-7.7,7.7c-5.2,2.1-9.4,4.5-9.3,7.9c0.1,3.5,12.7,7,21.9,0.3
			c5.8-4.2,7.7-4.2,8.6-6.8c0.9-2.6-1.6-9.5-1.6-10.3C453.9,795,441.9,797.2,441.9,797.2z"/>
	</g>
	<g>
		<path class="st54" d="M441.8,794.2c0,0,0,2.9,0.1,3c0.1,0.1,12.2,1.1,11.9-1.2c-0.2-1.8-1.2-4-1.2-4L441.8,794.2z"/>
	</g>
	<g>
		<path class="st55" d="M397.3,619.3c0,0-11.3,49.7-13.8,64.8c-2.2,12.9-3.9,26.3-2.9,35.6c1.3,11.5,17.6,71.2,16.9,74.5
			c-0.7,3.4,17.1,0.5,17.1,0.5s-12.4-66.5-9.9-78.9c1.8-9.2,17.9-70.1,20.4-67c2.5,3.1,5.5,57.5,7.3,66.5c1.8,9,7.4,80.4,7.4,80.4
			s12.5,1.8,15.9-1c0,0,1.5-60.9,0.4-77.8c-0.4-6.5,7.6-77.3-2.7-105.9C447.9,595.9,397.3,619.3,397.3,619.3z"/>
	</g>
	<g>
		<path class="st56" d="M348.3,574.1c8-1.1,33.3,10.1,35.6,9.2c1.6-0.6,5.3-12.6,7.9-21.8c1.6-5.4,2.8-9.8,2.9-10.1l0,0
			c0,0.2-0.4,4.4,0.1,9.8c0,0.4,0.1,0.7,0.1,1.1c0,0.1,0,0.2,0,0.3c0.2,1.9,0.6,4,1.1,6.1c0.8,3.1,1.2,7.2,1.3,11.5v0
			c0,0,0,0.1,0,0.1c0,0.1,0,0.2,0,0.3c0,0,0,0.1,0,0.1c0.2,7.8-0.3,16.3-0.5,20.7c-0.4,7,1.9,10.1,2,10.2c0,0,0,0,0,0l2.4-0.3
			l1.7-0.2l0,0l2.3-0.3l9.2-1.3l3.3-0.5l0.8-0.1l5.8-0.8l16.4-2.3l1.8-0.3l0.7-0.1l6.2-0.9l2.8-0.4l0,0c0,0,2.4-16.8,2.6-25.9
			c0.2-8.3,4.6-25.3,5.4-28c0,0,0,0,0-0.1c0,0,0-0.1,0-0.1c0,0,0-0.1,0-0.1c0,0,0,0,0-0.1c0,0,0,0,0,0c0,0,0,0,0,0c0,0,0,0,0,0
			s13.4,14,15.9,20.1c0.8,1.9,3.2,6.9,6.3,13.1c2.1-4,3.4-6.8,3.4-7.5c0-0.1,0-0.2,0-0.3c-0.2-6.1-6.5-30.6-11.5-46.6
			c-3.9-7.8-7.2-14.1-8.3-14.9c-1.6-1.2-8.5-4.1-14.5-6.5c-0.2-0.1-0.4-0.2-0.6-0.2c-0.6-0.2-1.1-0.4-1.6-0.6
			c-0.3-0.1-0.5-0.2-0.8-0.3c-0.1-0.1-0.3-0.1-0.4-0.2c-0.1,0-0.2-0.1-0.3-0.1h0c-3-1.1-5.3-1.9-5.7-2c-0.1,0-0.2,0-0.4,0
			c-0.2,0-0.5,0-0.8,0c-3.7,0.2-14.7,1.3-18.3,1.6c-0.6,0.1-1,0.1-1.1,0.1c0,0,0,0,0,0s-1.7,0.8-4.2,1.9l0,0l-0.2,0.1
			c-1.5,0.7-3.3,1.6-5.2,2.7c-3.7,2-7.8,4.4-11.2,6c-3.3,1.6-7.9,3.8-8.2,4.1l-16.8,48.4l-29.1-5.3L348.3,574.1z"/>
	</g>
	<g>
		<path class="st57" d="M398.9,611.6c0,0-1.2,1.5-1.6,7.7c0,0,50.6-5.9,56-8.2c0,0,0.2-6.9-0.9-7
			C451.1,603.9,398.9,611.6,398.9,611.6z"/>
	</g>
	<g>
		<path class="st43" d="M442.1,502.1c-0.2,7.9-15.5,12.3-15.5,12.3s-6.4-8.1-4.9-8.8c0.6-0.3,0.8-1.5,0.9-2.9c0.1-1.3,0-2.7-0.1-3.6
			c0-0.6-0.1-0.9-0.1-0.9s2.2-2.3,5-5.1c4.9-4.8,11.6-11,11.6-8.6c0,0.1,0,0.3-0.1,0.5C437.8,490.5,442.1,502.1,442.1,502.1z"/>
	</g>
	<g>
		<path class="st51" d="M440.8,605.3c0,0,1.1,7,1.2,8.8l2.3-0.5c0,0-0.6-7.4-1-8.6L440.8,605.3z"/>
	</g>
	<g>
		<path class="st51" d="M403.1,610.7c0,0-0.9,6.3-0.9,8.7l2.5-0.3c0,0,0.5-7.9,0.8-8.7L403.1,610.7z"/>
	</g>
	<g>
		<path class="st58" d="M436.2,490.5C436.2,490.5,436.2,490.5,436.2,490.5c0,0-0.7,1-1.8,2.4c-2.4,3-6.8,7.8-11.8,9.8
			c0.1-1.3,0-2.7-0.1-3.6c-0.5,0-1-0.1-1.5-0.2c1.4-2.4,3.3-4.9,3.3-4.9l3.1-0.9L436.2,490.5z"/>
	</g>
	<g>
		<path class="st43" d="M439.1,484.6c-1.3,2.9-2.6,5-3,5.8c0,0,0,0,0,0c-0.2,0.5-0.9,1.4-1.8,2.4c-2.5,2.7-7.2,6.3-11.9,6.2
			c-0.5,0-1-0.1-1.5-0.2c-1.9-0.4-4.1-1.3-5.3-3.7c-9.6-18.8-2.6-34.1-2.6-34.1s26.2-7.4,30.3,0.5
			C446.2,467.1,442.2,477.8,439.1,484.6z"/>
	</g>
	<g>
		<path class="st59" d="M413,461.1c0,0-2.4-0.1-3-4.8c-0.6-4.6,0.6-5.8,0.6-5.8s10.8-4.5,14.7-5.1c3.9-0.6,13.5-1.2,15.7,1.4
			c0,0,5.4-1.3,6.9,7.8c2.4,14.3-8,28.3-8,28.3s0.1-9.4-2-10.6c-2.1-1.2-3.9,1.7-3.9,1.7l-4.2,0.8c0,0,6.4-13.9-1.3-14.4
			C420.9,459.8,417.4,461.9,413,461.1z"/>
	</g>
	<g>
		<path class="st43" d="M434.2,470.2c0.4-4.1,7.9-5.7,7.4-1.4c-0.5,4.3-4.2,8.5-5.9,8.3C434,477,433.9,473.4,434.2,470.2z"/>
	</g>
	<g>
		<path class="st60" d="M486,575.5c0-0.1,0-0.2,0-0.3c-0.1-6-3.1-30.2-8.1-46.2c-2.4-7.8-3-13.2-3.9-13.9
			c-1.6-1.2-16.1-5.5-22.3-7.9c-0.2-0.1-0.4-0.2-0.6-0.2c-0.6-0.2-1.1-0.4-1.6-0.6c-0.3-0.1-0.5-0.2-0.8-0.3
			c-0.1-0.1-0.3-0.1-0.4-0.2c-0.1,0-0.2-0.1-0.3-0.1c0,0,0,0,0,0c-0.5,0.6-3.4,3.8-6.8,8.7c-6.4,9-14.6,23.7-13.4,37.2
			c0.4,4.3,0.9,10.6,1.8,17.5c0.1,0.6,0.1,1.2,0.2,1.8c0.2,1.6,0.4,3.2,0.7,4.9c0.1,1,0.3,2,0.5,3c1.7,10.5,7,17.6,11.6,26.1
			c0,0.1,0.1,0.1,0.1,0.2c0,0,0,0.1,0.1,0.1c0.1,0.2,0.2,0.4,0.3,0.5c0.2,0.3,0.3,0.6,0.5,0.9c0.1,0.2,0.2,0.3,0.3,0.5
			c0.9,1.7,1.8,3.5,2.6,5.2c0.6,1.1,1.1,2.3,1.6,3.4c0.1,0.1,0.1,0.2,0.2,0.4c0,0,0.9,2,2,4.6c0.4,0.9,0.8,2,1.3,3
			c0.3,0.7,0.6,1.4,0.9,2.1c0.3,0.6,0.5,1.2,0.7,1.7c0.5,1.2,1,2.3,1.3,3.1c0.2,0.6,0.4,1,0.5,1.1c1.6,4,2.8,7.1,3.3,8.6
			c0.2,0.6,0.3,0.9,0.3,0.9l16.2-8.9c3.1-1.5,1.5-9.8,0.3-13.1c-1-2.7-2.3-5.6-3.8-8.6c-0.6-1.2-1.3-2.5-1.9-3.7
			c5.1-8.9,10.2-18,13.5-24.2C484.7,579,486,576.2,486,575.5z M460.3,550.2C460.3,550.2,460.3,550.2,460.3,550.2c0-0.1,0-0.1,0-0.1
			c0,0,0-0.1,0-0.1c0,0,0,0,0-0.1c0,0,0,0,0,0c0,0,0,0,0,0c0,0,7.9,12.3,7.3,23c-0.1,1.7-1.7,5.9-4.2,11.3c0,0,0,0,0,0
			c-0.9,2-1.9,4.1-2.9,6.3c0-0.1-0.1-0.2-0.1-0.3c-1.5-3.7-2.5-7.1-2.5-10.1C458,580,458.7,556.5,460.3,550.2z"/>
	</g>
	<g>
		<path class="st60" d="M337.6,557.7l36.7,8l17.5-45.7c0.4-0.3,5.4-3,8.7-4.6c3.5-1.6,7.8-3.7,11.7-5.5c1.9-0.9,3.6-1.7,5.1-2.3
			l0.1,0.1c0,0-2.2,7.2-5,25.2c0,0,0,0,0,0c-0.1,0.6-0.2,1.2-0.3,1.8c0,0.1,0,0.1,0,0.2c-0.1,0.4-0.1,0.8-0.2,1.3c0,0.1,0,0.1,0,0.2
			c0,0.3-0.1,0.6-0.1,0.9c-0.1,0.7-0.2,1.4-0.3,2.2c-1.2,8.8-3,23.7-4.7,38.7v0c-1.3,11.9-4.4,24-5.3,33.1c0,0,0,0,0,0
			c-0.2,1.8-0.6,4.1-1.3,6.8c-0.1,0.3-0.1,0.6-0.2,0.9c-2.7,11.5-8,27.7-8,27.7l-1.5-1.4l-4.5-4.2c-1-1-1.4-2.4-1-3.8
			c2.5-8.1,11.1-36.9,12.6-57.1c0,0,0,0,0,0c0.5-6.4-1.4-12.3-2.4-18c0,0,0,0.1-0.1,0.1c-0.9,2.5-1.9,5.2-2.9,7.9v0
			c-2.7,7.1-5.5,13.7-6.6,14.1c-2.6,0.9-50.8-12.3-51.2-14.1L337.6,557.7z"/>
	</g>
	<g>
		<path class="st61" d="M443.6,525.5l-7.5,4.2l3.2,3.3l-8.5,46c-1.7-10.8-2.5-21-3.1-27.3c-2-20.9,18.9-44.4,20.2-45.9
			c1,0.4,2.1,0.8,3.2,1.2L443.6,525.5z"/>
	</g>
	<g>
		<path class="st61" d="M417.4,507.5c0,0-2.8,9.1-6.1,31.9c-1.2,8.8-3,23.7-4.7,38.7l-1.7-43l3.6-3.9l-3.2-4l6.8-17.3
			c1.9-0.9,3.6-1.7,5.1-2.3L417.4,507.5z"/>
	</g>
	<g>
		<path class="st62" d="M448.3,505.9l-6.2-3.8c0,0-0.2,3.4-15.5,12.3l4.4,12.3L448.3,505.9z"/>
	</g>
	<g>
		<path class="st62" d="M422.5,503.8c0,0,0.2,3.7,4.1,10.6l-8.5,11.1l-0.6-18L422.5,503.8z"/>
	</g>
	<g>
		<path class="st53" d="M426.6,514.4c0,0,1.7,6.6,1.1,8.4c0,0-3.6,1.3-6.2-0.3C421.4,522.5,423.2,517.9,426.6,514.4z"/>
	</g>
	<g>
		<g>
			<path class="st63" d="M418,609.6c-0.9-4.7,0-18.6,0-19.2l0.8,0.1c0,0.1-0.9,14.4,0,19L418,609.6z"/>
		</g>
	</g>
	<g>
		<path class="st64" d="M424.5,607.4c0,0-7.4,0.9-9.9,1.5l0.3,8.3l9.8-1L424.5,607.4z"/>
	</g>
	<g>
		<path class="st53" d="M422.9,521.9c0,0-8.3,21-7,44.5c1.4,24.3,3.7,33.2,3.7,33.2l5.1,6.4l2.3-7.9c0,0-6.9-31-2.4-61.2
			c0.8-5.5,2-15.8,2-15.8L422.9,521.9z"/>
	</g>
	<g>
		<path class="st43" d="M447.8,621c0,0-1.8,3.6-3.6,4.2c-1.8,0.6-4.4,3.5-4.4,3.5l12.5,6.6c0,0,3.3-6.5,3.5-10.7
			C456.1,620.4,447.8,621,447.8,621z"/>
	</g>
	<g>
		<path class="st56" d="M446.6,621.3l-0.8,1.7c0,0,8,5.8,10.1,6.2l0.7-2.2L446.6,621.3z"/>
	</g>
	<g>
		<path class="st60" d="M445.8,621.4c0,0,6,4.9,11,7.2l16.9-30.4l-8.8-17C465,581.2,446.2,618.4,445.8,621.4z"/>
	</g>
	<g>
		<path class="st55" d="M395.2,551.5c-0.3,5.6-0.2,10.6-0.2,10.6s0,0,0,0c0,0,0,0.2,0,0.4c0-0.1,0-0.2,0-0.3
			c-0.9,2.5-1.9,5.2-2.9,7.9c-0.2-3.1-0.3-5.9-0.2-8.6c0.4-15.8,5.4-24.1,5.4-24.1C396.1,540.2,395.5,546.1,395.2,551.5z"/>
	</g>
	<g>
		<path class="st55" d="M471.1,610.9l-13.6,16.4l11.6-20.1C469.8,608.5,470.5,609.7,471.1,610.9z"/>
	</g>
	<g>
		<path class="st65" d="M372.7,590.4h-31.3c-2.1,0-4-1.5-4.5-3.6l-13.6-56.1c-0.7-2.9,1.5-5.7,4.5-5.7h31.3c2.1,0,4,1.5,4.5,3.6
			l13.6,56.1C377.9,587.6,375.7,590.4,372.7,590.4z"/>
	</g>
	<g>
		<g>
			<path class="st43" d="M334.4,574.8c1.5-1.4,4.5-2.2,7-3.9c2.5-1.7,0.4-3.4,0.4-3.4c2.6-0.9,2.3-2.1,2-2.9
				c-0.4-1.1-3.3-0.8-3.3-0.8s2.5-0.6,3.6-1c1-0.5,0.7-2.3-0.9-2.9c-1.6-0.6-8.2,1-8.2,1s1.1-0.5,4.3-2.1c3.2-1.6,3.9-3.1,2-3.8
				c-1.3-0.5-3.9,0.5-8.9,3.9c-3.8,2.5-3.5,2.9-3.5,2.9S332.6,576.5,334.4,574.8z"/>
		</g>
	</g>
</g>
</svg>
