<?xml version="1.0" encoding="utf-8"?>
<!-- Generator: Adobe Illustrator 22.0.1, SVG Export Plug-In . SVG Version: 6.00 Build 0)  -->
<svg version="1.1" xmlns="http://www.w3.org/2000/svg" xmlns:xlink="http://www.w3.org/1999/xlink" x="0px" y="0px"
	 viewBox="0 0 619 519" style="enable-background:new 0 0 619 519;" xml:space="preserve">
<style type="text/css">
	.st0{fill:#D8D8D8;}
	.st1{fill:#F70F47;}
	.st2{fill:url(#SVGID_5_);}
	.st3{fill:url(#SVGID_6_);}
	.st4{fill:#933B00;}
	.st5{fill:#ED9169;}
	.st6{fill:url(#SVGID_7_);}
	.st7{fill:#FFB41D;}
	.st8{fill:url(#SVGID_8_);}
	.st9{fill:url(#SVGID_9_);}
	.st10{fill:#FFAF84;}
	.st11{opacity:0.3;clip-path:url(#SVGID_11_);fill:url(#SVGID_12_);}
	.st12{opacity:0.8;}
	.st13{fill:url(#SVGID_13_);}
	.st14{opacity:0.5;fill:#7BCAFF;}
	.st15{fill:none;stroke:#BBCEFF;stroke-width:0.9249;stroke-miterlimit:10;}
	.st16{fill:#F6F3FF;}
	.st17{opacity:0.4;fill:#FF3369;}
	.st18{fill:#FFC550;}
	.st19{fill:#EDF4FC;}
	.st20{fill:#F2BBD2;}
	.st21{fill:#AAA4F7;}
	.st22{opacity:0.6;}
	.st23{fill:#7BCAFF;}
	.st24{opacity:0.5;fill:#FF3369;}
	.st25{fill:none;stroke:#FFC550;stroke-width:1.0095;stroke-miterlimit:10;}
	.st26{fill:#FF3369;}
	.st27{fill:url(#SVGID_14_);}
	.st28{fill:url(#SVGID_15_);}
	.st29{fill:#4E11F4;}
	.st30{fill:url(#SVGID_16_);}
	.st31{fill:url(#SVGID_17_);}
	.st32{fill:url(#SVGID_18_);}
	.st33{fill:#050505;}
	.st34{opacity:0.3;clip-path:url(#SVGID_20_);fill:url(#SVGID_21_);}
	.st35{opacity:0.5;}
	.st36{fill:#A111F4;}
</style>
<g id="Background">
</g>
<g id="Objects">
	<g>
		<g>
			<g>
				<defs>
					<path id="SVGID_1_" d="M201.8,184.4c-2.4-2.3-7.4,6.3-10.6,12.9c-0.5-2.3-1.4-4.3-2.8-4c-1.5,0.2-0.7,7.8-0.6,9.1
						c0.1,0.8,0.2,1.4,0.4,2c0,0.1,0,0.2-0.1,0.2c-4.5,5.1-21.9,19.3-25.6,25c-6.6-1.8-18.3-5.9-33-10.2c-0.6-0.2-1.4-0.2-2.2-0.1
						c-3.8-1.1-8.3-1.7-10.9-1.8c0-0.9,0-1.8-0.1-2.6c4.2-0.6,7.3-4.8,8.3-8.3c0.6-2.1,1.2-5.6,1.5-10c0.2-0.5,0.5-1,0.7-1.7
						c0.8-2.5,1.9-10.1-0.5-13.1c4.7-2.6,3.9-11.8-3.7-12.5c-4.5,0-1.3,1-4.9,2.4c-1.8,0.7-22,1.4-18.8,6.6
						c-1.5,0.2-2.8,1.4-3.6,4.3c-1.1,4-1.6,6.6-1,8.7c-0.3,0-0.5,0-0.7,0.1c-1.7,0.6-2,3.6-0.7,6.6c1,2.3,2.7,4,4.2,4.3
						c0.6,3.2,1.6,4.9,3.9,7c-0.2,2.5-0.4,5.5-0.6,8.4c-1.9,0.2-3.9,0.6-5.7,0.9c-1.7,0.3-3.3,0.7-4.7,1.3c-1.2,0.3-2.3,0.8-3.4,1.7
						c-2.4,1.5-4.1,3.3-5.2,5.6c-2.1,2.5-4.7,5.9-8.3,11.2c-10.5,15.4-13,22.6-13.6,25.9c0,0.3,0,0.5,0,0.8c0,0.4,0.1,0.8,0.3,1.3
						c4,8.6,5.9,11.7,16.5,22.3c5,5,7.7,7.9,10.2,9.6c-0.2,1.6,0.9,2.7,2.6,3.2c0.7,0.2,1.4,0.2,1.9,0.1c0.1,3.8,0,7.4-0.3,10.5
						c-1.6,7.5-2,13.7-1.9,18.6c-0.9,7.7-5.1,63-6.5,73.2c-0.1,0.4-0.1,0.8-0.1,1.2c0,0,0,0,0,0c-8.2,17.5-7.6,73.3-7.1,84.4
						c0,0.6,0.2,0.9,0.4,1c-0.2,0.7-0.2,1.4-0.1,2.1c0.1,1.4-0.2,3.2-1.5,7.4c-1.4,4.2,3.4,4.7,11.5,4.5c7.5-0.1,5.6-2.9,4.4-4.6
						c-1.1-1.6-3-2.3-3.4-4.2c-0.2-1.4-0.1-2.2-0.5-4c0,0,0,0,0,0c1.7-15.2,11.9-62.4,16.2-78.9c0.4-1.6,0.6-3,0.6-4.3
						c5.3-17.2,13.6-46.5,15.6-59.1c2.6,14.1,8.7,46,13,60.9c-5.7,20.8,5.1,63.4,5.7,87.9c0,0,0,0,0,0c0,0.2-0.1,0.3-0.1,0.5
						c-0.6,4.7-0.6,4.9,4,4.9c3.4,0,6.3,0.1,9.2,0.5c2.9,0.4,8.7,1.3,13.6-0.2c4.9-1.5-4-2.3-8.1-4c-4.2-1.7-7.2-4.3-7.8-5.4
						c-0.2-0.3-0.4-0.6-0.7-0.8c-0.3-32.6,3.6-65.1,4.4-81.9c0-1,0-2-0.1-2.8c0.1-1.5,0.1-3.2-0.1-5.1c-0.6-7.6-2-40.2-2.9-59.6l0,0
						c0-17-2-32.1-2-32.1s-0.3-42-3.3-69.6c15.8,3.1,23,2.9,26.3,2.3c1.1,0.1,2.1-0.1,3-1c4.8-4.9,9.6-11.1,16.8-22.9
						c4.1-6.7,5.2-10,5.3-13c3.3-0.7,7.2-3.6,8.6-8C204,196.9,205.7,188.2,201.8,184.4z M77,263.2c1.7-2.2,4.2-5.2,7.3-8.8
						c3.1,11.9,5.2,24.4,6.2,35.6C86.5,281.7,80.5,267.4,77,263.2z"/>
				</defs>
				<clipPath id="SVGID_2_">
					<use xlink:href="#SVGID_1_"  style="overflow:visible;"/>
				</clipPath>
			</g>
		</g>
		<g>
			<defs>
				<path id="SVGID_3_" d="M566.9,499.9c-1.3-4-1.6-5.8-1.5-7.2c0.4-0.8,0.2-2.1,0.3-3.3c0.4-11.1,1.1-67-7.1-84.4c0,0,0,0,0,0
					c0-0.4-0.1-0.8-0.1-1.2c-1.5-10.2-5.6-65.5-6.5-73.2c0.1-4.9-0.3-11.1-1.9-18.6c-0.6-6.8-0.5-15.1,0.4-24.2
					c4.5-1.6,7.7-3.3,12.4-6.1c0.9-0.5,1.3-1.2,1.5-2.1c0,0,0-0.1,0.1-0.1c1.1-3.2,2.2-10.7,0-28.9c-1.3-11.1-2.7-15.8-3.7-19.1
					c-0.5-2-1.6-3.4-2.9-4.4c-2.2-3.7-6-6.6-11.7-8.2c-1.8-0.5-3.8-0.8-5.8-1c-0.1-1.9-0.2-3.8-0.4-5.6c0-0.5-0.1-0.9-0.3-1.4
					c2.2-1.9,3.2-3.5,3.8-6c0.8-1.4,1.4-2.9,1.9-4.5c0.8-0.8,1.4-1.8,2-3c1.2-2.9,1-5.7-0.5-6.5c0.4-6-0.4-10.6-4.6-12.3
					c0.2-4.3-17.4-4.9-19.2-5.6c-3.7-1.4-0.4-2.4-4.9-2.4c-8.1,0.7-8.4,11-2.8,12.9c0.1,0,0.2,0.1,0.3,0.1c-0.3,0.7-0.5,1.4-0.6,2.1
					c-0.3,2-0.4,3.9-0.5,5.7c-0.8-0.6-1.7-0.8-2.4-0.5c-1.7,0.6-2,3.6-0.7,6.6c0.9,2,2.2,3.5,3.6,4.1c0.3,1.8,0.6,3.4,1,4.6
					c1,3.6,4,8.8,8.6,9c0,0.3-0.1,0.6-0.1,1c0,0.5,0,1,0,1.5c-2.8,0.1-8.1,0.8-12,2.2c-4.6,1.3-9.3,4.2-10.3,6.5
					c-0.4,1-0.8,1.9-1.2,2.8c-0.9,1.5-1.5,3.1-1.9,4.8c-5.3,13.3-8.8,23.4-10.9,26.6c-0.4,0.6-0.6,1.1-0.7,1.7
					c-5.6,4.7-17.7,22.3-22.3,27.1c-0.1,0-0.2,0.1-0.3,0.1c-0.6-0.1-1.2-0.1-2.1-0.1c-1.4,0.1-9.4,0.4-9.4,1.8
					c0,1.4,2.1,1.9,4.6,2.1c-6.4,3.9-14.8,9.7-12.1,11.7c4.5,3.2,13.4,0.4,16.3-0.9c4.4-2,6.9-6,7.2-9.2c3.2-0.6,6.5-2,12.9-6.8
					c5.5-4.1,9.7-7.4,13.1-10.4c-0.8,18.6-0.9,34.4-0.9,34.4s-2,15-2,32.1l0,0c-0.9,19.4-2.3,52-2.9,59.6c-0.2,1.9-0.2,3.6-0.1,5.1
					c-0.1,0.9-0.1,1.8-0.1,2.8c0.8,16.8,6.1,49.3,4.4,81.9c-0.3,0.3-0.5,0.5-0.7,0.9c-0.6,1.1-3.7,3.7-7.8,5.4
					c-4.2,1.7-13.1,2.5-8.1,4c4.9,1.5,10.7,0.6,13.6,0.2c2.9-0.4,5.7-0.5,9.2-0.5c4.5,0,4.6-0.3,4-4.9c0-0.1-0.1-0.3-0.1-0.4
					c0,0,0,0,0,0c0.7-24.5,11.5-67.1,5.7-87.9c4.3-14.9,10.4-46.8,13-60.9c2,12.6,10.2,41.9,15.6,59.1c0,1.3,0.2,2.8,0.6,4.3
					c4.3,16.5,14.8,62.6,16.2,78.9c0,0,0,0,0,0c-0.4,1.8-0.3,2.7-0.5,4c-0.3,1.9-2.3,2.6-3.4,4.2c-1.2,1.7-3.2,4.2,4.4,4.4
					C563.5,504.3,568.3,504,566.9,499.9z"/>
			</defs>
			<clipPath id="SVGID_4_">
				<use xlink:href="#SVGID_3_"  style="overflow:visible;"/>
			</clipPath>
		</g>
	</g>
	<g>
		<g>
			<path class="st0" d="M174,503.3c0,2.2-24.6,3.9-54.8,3.9c-30.3,0-54.8-1.8-54.8-3.9c0-2.2,24.6-3.9,54.8-3.9
				C149.5,499.4,174,501.1,174,503.3z"/>
			<g>
				<path class="st1" d="M85.6,490.8c0.7,2.4,0.4,3.2,0.7,4.8c0.3,1.9,2.3,2.6,3.4,4.2c1.2,1.7,3.2,4.5-4.4,4.6
					c-8.1,0.1-12.9-0.4-11.5-4.5c1.4-4.2,1.6-6,1.5-7.4c-0.1-1.4,0-2.8,0.9-3.6C77.2,488.1,84.4,486.7,85.6,490.8z"/>
				<linearGradient id="SVGID_5_" gradientUnits="userSpaceOnUse" x1="204.5887" y1="216.7608" x2="144.0215" y2="233.4477">
					<stop  offset="0" style="stop-color:#F70F47"/>
					<stop  offset="1" style="stop-color:#9E005D"/>
				</linearGradient>
				<path class="st2" d="M194.3,204.9c0.3,4.3,0.1,7.2-5.3,15.9c-7.2,11.8-12,18-16.8,22.9c-4.4,4.5-14.3-6.8-9.9-14
					c3.7-6.1,24.3-22.6,26.6-26.3C190.5,201,194.1,201.4,194.3,204.9z"/>
				<linearGradient id="SVGID_6_" gradientUnits="userSpaceOnUse" x1="205.0834" y1="216.235" x2="143.6812" y2="233.1519">
					<stop  offset="0" style="stop-color:#F70F47"/>
					<stop  offset="1" style="stop-color:#9E005D"/>
				</linearGradient>
				<path class="st3" d="M169.6,244.6c-3.5,0.6-11.5,1-30.4-3c-11.6-2.4-16.3-4.3-19.7-5.5c-6.1-2.2-7-8.5-4.7-10.9
					c3.7-3.9,11.4-6.8,14.7-5.9c18.5,5.3,32.3,10.5,37,11C173.3,231.2,173.7,243.9,169.6,244.6z"/>
				<path class="st4" d="M120.9,197.3c3.3,1.5,4.7,1.5,5.9-2.4c0.9-3,2.5-13.6-2.6-14.3c-5.1-0.7-9.1-0.8-8.5,5.7
					C116.3,192.8,117,195.6,120.9,197.3z"/>
				<path class="st5" d="M101.6,203c-0.1,0.5-1.2,10.6-1.4,18.4c-0.1,3.8,3.9,7.4,8,7.5c0.1,0,0.1,0,0.2,0c4,0,8.6-3.4,8.3-7.1
					c-0.6-6.8-0.2-13.7-0.1-13.8L101.6,203z"/>
				<linearGradient id="SVGID_7_" gradientUnits="userSpaceOnUse" x1="110.9505" y1="235.6412" x2="121.0431" y2="322.3193">
					<stop  offset="0" style="stop-color:#F70F47"/>
					<stop  offset="1" style="stop-color:#9E005D"/>
				</linearGradient>
				<path class="st6" d="M81.6,245.3C89,268.2,92.3,296,90.8,312h55.4c0,0-0.3-49.1-4-76c-0.9-6.3-4.7-11.9-11.7-15.4
					c-4.2-2.1-11.7-3.1-14.8-3.1h-10.2c-3.4,0-7.4,0.7-10.8,1.3C80,221.3,77.4,232.1,81.6,245.3z"/>
				<path class="st7" d="M91.1,344c0,0-4.8-11-0.2-32.1h55.4c0,0,2,15,2,32.1H91.1z"/>
				<g>
					<g>
						<path class="st7" d="M102,412.7c4.4-17.1-14-20.1-19.8-7.7c-8.2,17.5-7.6,73.3-7.1,84.4c0.1,1.5,0.9,1.2,1.8,0.9
							c2.6-0.9,4.8-1.2,5.9-1c2,0.4,3.1,2.3,3.1,2.3C87.5,476.4,97.7,429.2,102,412.7z"/>
						<path class="st7" d="M118.6,346.3c1.9-21.2-6.9-37.7-20.8-30.7c-5.9,2.9-8,8.8-8.8,14.4c-0.8,5.6-5.1,63.2-6.6,73.7
							c-3.4,23.5,16.2,17.2,18.3,10.7C106.1,397.9,117.5,357.9,118.6,346.3z"/>
					</g>
				</g>
				<path class="st7" d="M151.3,411.6c0.7-15.9-15.6-15.6-19.8-2.6c-6.5,20.4,4.7,64.1,5.4,89.1c2.9-4.3,5.5-5.4,6.8-5.3
					c2.1,0.1,3.2,1.6,3.2,1.6C146.5,461.5,150.5,428.6,151.3,411.6z"/>
				<path class="st7" d="M132.2,413.3c2.2,6.5,20.9,14,19-9.6c-0.9-10.5-3.2-68.4-3.6-74c-0.4-5.6-1.5-13.7-4.4-14.8
					c-14.8-5.1-29.2,11.6-25.3,32.5C120.5,361.4,127.7,399.8,132.2,413.3z"/>
				<linearGradient id="SVGID_8_" gradientUnits="userSpaceOnUse" x1="72.1954" y1="239.8147" x2="82.2961" y2="326.5621">
					<stop  offset="0" style="stop-color:#F70F47"/>
					<stop  offset="1" style="stop-color:#9E005D"/>
				</linearGradient>
				<path class="st8" d="M90.4,300c-4.4-1.2-6.6-4.1-14-11.4c-10.6-10.5-12.4-13.7-16.5-22.3c-2.6-5.6,11.4-9.7,17-3.3
					c4.7,5.4,13.9,29.4,16.8,32.7C95.6,297.9,93.9,301,90.4,300z"/>
				<linearGradient id="SVGID_9_" gradientUnits="userSpaceOnUse" x1="78.7846" y1="239.2189" x2="88.8203" y2="325.4079">
					<stop  offset="0" style="stop-color:#F70F47"/>
					<stop  offset="1" style="stop-color:#9E005D"/>
				</linearGradient>
				<path class="st9" d="M59.6,264.3c0.6-3.3,3-10.5,13.6-25.9c6.4-9.4,9.9-13,12.3-15.6c4.2-4.7,10.8-3.3,12.4-0.4
					c2.6,4.6,2.8,12.5,0.7,15.1c-11.7,14.5-21.6,25-23.8,29C71.6,272.3,58.9,268.2,59.6,264.3z"/>
				<path class="st10" d="M96.2,195.7c0.9,8.7,1.2,10.6,5.2,14.1c4,3.6,9.7,5.2,14.1,5.2c4.7,0,8.2-4.7,9.2-8.4
					c1.1-3.8,2.4-12.7,1.1-22.2c-0.7-4.8-6.9-10.7-13.4-10.7C105.8,173.8,93.9,174.5,96.2,195.7z"/>
				<path class="st10" d="M88.7,294.6c2.1-2.2,5.4-5.6,7.1-7.6c1.6-2,6.5,1.4,6.6,3.1c0.2,2.5-2.5,9.4-5.9,9.4c-3.4,0-4.4,2.9-7.3,2
					C86.3,300.5,85.3,298.2,88.7,294.6z"/>
				<path class="st1" d="M147.6,494.3c0.6,1.1,3.7,3.7,7.8,5.4c4.2,1.7,13.1,2.5,8.1,4c-4.9,1.5-10.7,0.6-13.6,0.2
					c-2.9-0.4-5.7-0.5-9.2-0.5c-4.5,0-4.6-0.3-4-4.9C137.7,492,145.6,490.7,147.6,494.3z"/>
				<path class="st4" d="M96.2,194.3c2.5,2.3,3.8,2.8,6.2-0.3c1.9-2.4,7-11.5,2.6-13.8c-4.4-2.2-8-3.6-9.7,2.5
					C93.6,188.8,93.2,191.5,96.2,194.3z"/>
				<path class="st10" d="M98.9,195.8c1.3,3,1,6-0.7,6.6c-1.7,0.6-4.1-1.3-5.4-4.3c-1.3-3-1-6,0.7-6.6
					C95.2,190.9,97.6,192.8,98.9,195.8z"/>
				<path class="st4" d="M99,178.6c3.6,5,20.8,5.5,26.5,3.7c5.6-1.9,5.2-12.2-2.8-12.9c-4.5,0-1.3,1-4.9,2.4
					C115.8,172.5,95.2,173.2,99,178.6z"/>
				<path class="st10" d="M188.2,203.9c1-2.6,10-22.9,13.6-19.5c3.9,3.7,2.2,12.5,1.3,15.4c-1.8,5.3-7,8.4-10.6,8.2
					C190,207.8,187.3,206.4,188.2,203.9z"/>
				<path class="st10" d="M187.7,202.4c-0.1-1.3-0.9-8.9,0.6-9.1c2.3-0.4,3,4.6,3.5,7.9c0.3,1.8-0.6,4.3-2.2,4.4
					C188.2,205.6,188,204.4,187.7,202.4z"/>
			</g>
			<g>
				<defs>
					<path id="SVGID_10_" d="M201.8,184.4c-2.4-2.3-7.4,6.3-10.6,12.9c-0.5-2.3-1.4-4.3-2.8-4c-1.5,0.2-0.7,7.8-0.6,9.1
						c0.1,0.8,0.2,1.4,0.4,2c0,0.1,0,0.2-0.1,0.2c-4.5,5.1-21.9,19.3-25.6,25c-6.6-1.8-18.3-5.9-33-10.2c-0.6-0.2-1.4-0.2-2.2-0.1
						c-3.8-1.1-8.3-1.7-10.9-1.8c0-0.9,0-1.8-0.1-2.6c4.2-0.6,7.3-4.8,8.3-8.3c0.6-2.1,1.2-5.6,1.5-10c0.2-0.5,0.5-1,0.7-1.7
						c0.8-2.5,1.9-10.1-0.5-13.1c4.7-2.6,3.9-11.8-3.7-12.5c-4.5,0-1.3,1-4.9,2.4c-1.8,0.7-22,1.4-18.8,6.6
						c-1.5,0.2-2.8,1.4-3.6,4.3c-1.1,4-1.6,6.6-1,8.7c-0.3,0-0.5,0-0.7,0.1c-1.7,0.6-2,3.6-0.7,6.6c1,2.3,2.7,4,4.2,4.3
						c0.6,3.2,1.6,4.9,3.9,7c-0.2,2.5-0.4,5.5-0.6,8.4c-1.9,0.2-3.9,0.6-5.7,0.9c-1.7,0.3-3.3,0.7-4.7,1.3c-1.2,0.3-2.3,0.8-3.4,1.7
						c-2.4,1.5-4.1,3.3-5.2,5.6c-2.1,2.5-4.7,5.9-8.3,11.2c-10.5,15.4-13,22.6-13.6,25.9c0,0.3,0,0.5,0,0.8c0,0.4,0.1,0.8,0.3,1.3
						c4,8.6,5.9,11.7,16.5,22.3c5,5,7.7,7.9,10.2,9.6c-0.2,1.6,0.9,2.7,2.6,3.2c0.7,0.2,1.4,0.2,1.9,0.1c0.1,3.8,0,7.4-0.3,10.5
						c-1.6,7.5-2,13.7-1.9,18.6c-0.9,7.7-5.1,63-6.5,73.2c-0.1,0.4-0.1,0.8-0.1,1.2c0,0,0,0,0,0c-8.2,17.5-7.6,73.3-7.1,84.4
						c0,0.6,0.2,0.9,0.4,1c-0.2,0.7-0.2,1.4-0.1,2.1c0.1,1.4-0.2,3.2-1.5,7.4c-1.4,4.2,3.4,4.7,11.5,4.5c7.5-0.1,5.6-2.9,4.4-4.6
						c-1.1-1.6-3-2.3-3.4-4.2c-0.2-1.4-0.1-2.2-0.5-4c0,0,0,0,0,0c1.7-15.2,11.9-62.4,16.2-78.9c0.4-1.6,0.6-3,0.6-4.3
						c5.3-17.2,13.6-46.5,15.6-59.1c2.6,14.1,8.7,46,13,60.9c-5.7,20.8,5.1,63.4,5.7,87.9c0,0,0,0,0,0c0,0.2-0.1,0.3-0.1,0.5
						c-0.6,4.7-0.6,4.9,4,4.9c3.4,0,6.3,0.1,9.2,0.5c2.9,0.4,8.7,1.3,13.6-0.2c4.9-1.5-4-2.3-8.1-4c-4.2-1.7-7.2-4.3-7.8-5.4
						c-0.2-0.3-0.4-0.6-0.7-0.8c-0.3-32.6,3.6-65.1,4.4-81.9c0-1,0-2-0.1-2.8c0.1-1.5,0.1-3.2-0.1-5.1c-0.6-7.6-2-40.2-2.9-59.6l0,0
						c0-17-2-32.1-2-32.1s-0.3-42-3.3-69.6c15.8,3.1,23,2.9,26.3,2.3c1.1,0.1,2.1-0.1,3-1c4.8-4.9,9.6-11.1,16.8-22.9
						c4.1-6.7,5.2-10,5.3-13c3.3-0.7,7.2-3.6,8.6-8C204,196.9,205.7,188.2,201.8,184.4z M77,263.2c1.7-2.2,4.2-5.2,7.3-8.8
						c3.1,11.9,5.2,24.4,6.2,35.6C86.5,281.7,80.5,267.4,77,263.2z"/>
				</defs>
				<clipPath id="SVGID_11_">
					<use xlink:href="#SVGID_10_"  style="overflow:visible;"/>
				</clipPath>
				
					<linearGradient id="SVGID_12_" gradientUnits="userSpaceOnUse" x1="474.3447" y1="-277.9496" x2="767.7716" y2="-97.6742" gradientTransform="matrix(-0.3987 -0.8712 0.5368 -0.4748 372.4919 773.6556)">
					<stop  offset="0" style="stop-color:#0000FF"/>
					<stop  offset="1" style="stop-color:#9E005D"/>
				</linearGradient>
				<path class="st11" d="M24.1,151.7c28.9-4.6,70,13.7,78.3,42.3c8.5,29.2-14.7,43.2,4.3,83.6c15,32-2.2,67-6.3,94.7
					c-4.5,30.4,11.6,45.1,6.3,72.2c-12.2,62.4-11.4,80.7-56.7,94C3.4,552-6.1,490.6-36.3,442.1c-22.3-35.8-35-72.9-19.7-99.2
					c21.9-37.8,53.9,0.5,42.7-45c-6.7-27.3-5.6-74.4,36-67.3C64.3,237.7-17.5,158.3,24.1,151.7z"/>
			</g>
		</g>
		<g class="st12">
			<linearGradient id="SVGID_13_" gradientUnits="userSpaceOnUse" x1="106.2803" y1="414.4895" x2="503.7025" y2="88.0955">
				<stop  offset="0" style="stop-color:#401381"/>
				<stop  offset="1" style="stop-color:#D11137"/>
			</linearGradient>
			<polygon class="st13" points="204.9,65.2 204.9,344.4 548.8,319.4 548.8,100.8 			"/>
			<polygon class="st14" points="217.1,337.3 555.5,314 555.5,118.3 217.1,88 			"/>
			<polygon class="st14" points="374.4,311.2 522.5,302.6 522.5,124.5 374.4,112.3 			"/>
			<path class="st15" d="M397.1,158.2l128.7,6.5c1.6,0.1,2.8-1.4,2.8-3.3v-24.1c0-1.9-1.3-3.6-2.8-3.7l-128.7-9.7
				c-1.9-0.1-3.5,1.5-3.5,3.6v26.7C393.7,156.3,395.2,158.1,397.1,158.2z"/>
			<path class="st15" d="M397.1,203.5l128.7,2.4c1.6,0,2.8-1.5,2.8-3.4v-24.1c0-1.9-1.3-3.5-2.8-3.6l-128.7-5.5
				c-1.9-0.1-3.5,1.6-3.5,3.7v26.7C393.7,201.7,395.2,203.5,397.1,203.5z"/>
			<path class="st16" d="M392.5,208.5l129.5,1.9c1.6,0,2.9-1.5,2.9-3.4v-24.2c0-1.9-1.3-3.5-2.9-3.6L392.5,174
				c-1.9-0.1-3.5,1.6-3.5,3.7v26.8C389.1,206.7,390.6,208.5,392.5,208.5z"/>
			<path class="st15" d="M397.1,248.8l128.7-1.8c1.6,0,2.8-1.6,2.8-3.5v-24.1c0-1.9-1.3-3.5-2.8-3.5l-128.7-1.4
				c-1.9,0-3.5,1.7-3.5,3.8V245C393.7,247.1,395.2,248.8,397.1,248.8z"/>
			<polygon class="st17" points="153.6,289.7 334.8,283 334.8,62.8 153.6,42.1 			"/>
			<path class="st15" d="M397.1,294.1l128.7-6c1.6-0.1,2.8-1.7,2.8-3.6v-24.1c0-1.9-1.3-3.4-2.8-3.4l-128.7,2.8
				c-1.9,0-3.5,1.8-3.5,3.9v26.7C393.7,292.5,395.2,294.1,397.1,294.1z"/>
			<g>
				<path class="st18" d="M255.1,199.7c-21.7,8.2-48.1,3.1-66.7-15.5c-9.1-9.2-15-20.2-17.6-31.8l31.5-5
					c3.1,14.2,15.7,25.1,30.5,25.7c4,0.2,7.8-0.4,11.3-1.7L255.1,199.7z"/>
				<path class="st19" d="M277.4,179.3c-0.5,0.4-0.9,0.9-1.4,1.3l-20-22.5c5.8-5.2,9.4-12.8,9.4-21.4c0-16.5-13.3-31-30-32.3
					c-12.1-1-22.8,5.2-28,15.1l-28.8-15.9c3.1-5.8,7.2-11.1,12.3-15.6c24.8-21.9,63.5-17.8,86.4,7.6
					C299.7,120.4,299.7,157.3,277.4,179.3z"/>
				<path class="st20" d="M204.2,133c0,2.3,0.3,4.5,0.7,6.7l-31.5,5c-3.2-14-1.4-28.6,5.3-41.1l28.8,15.9
					C205.3,123.5,204.2,128.1,204.2,133z"/>
				<path class="st21" d="M276,180.6c-5.4,5-11.7,8.8-18.3,11.3l-11-28.2c3.5-1.2,6.7-3.2,9.4-5.6L276,180.6z"/>
			</g>
			<g class="st22">
				<polygon class="st23" points="466.9,186.2 518.7,187.8 518.7,184.3 466.9,182.5 				"/>
				<polygon class="st23" points="466.9,192.7 518.7,194.2 518.7,190.6 466.9,189 				"/>
				<polygon class="st23" points="496.3,200 518.7,200.5 518.7,196.9 496.3,196.4 				"/>
			</g>
			<polygon class="st24" points="429.8,256.9 445.3,257.3 445.3,239.8 429.8,239.2 			"/>
			<polygon class="st24" points="402.8,216.8 418.7,217.2 418.7,199.4 402.8,198.9 			"/>
			<polygon class="st20" points="246.8,211.2 246.8,322.2 249.5,322 249.5,211.2 			"/>
			<polygon class="st19" points="358.7,280.8 358.7,315.4 361.1,315.3 361.1,280.7 			"/>
			<polygon class="st21" points="304.9,243.4 304.9,318.7 307.4,318.5 307.4,243.4 			"/>
			<path class="st25" d="M184.7,297.3c32.3-1.4,32.3-71.1,63.4-71c29.9,0.1,29.9,67.1,58.6,65.8c27.7-1.2,27.7-65.7,54.3-65.6"/>
			<polygon class="st26" points="289.2,208.4 289.2,202.6 278,202.4 278,208.2 			"/>
			<polygon class="st26" points="308.5,208.6 308.5,203 297.6,202.8 297.6,208.5 			"/>
			<polygon class="st26" points="327.4,208.9 327.4,203.3 316.8,203.1 316.8,208.7 			"/>
			<polygon class="st14" points="463.2,229.5 515.8,229.5 515.8,224.7 463.2,224.5 			"/>
			<polygon class="st14" points="480.8,238.3 515.8,238.1 515.8,233.3 480.8,233.4 			"/>
			<polygon class="st14" points="467.6,238.4 476.6,238.3 476.6,233.4 467.6,233.4 			"/>
			<polygon class="st14" points="463.2,144.3 515.8,147.7 515.8,142.9 463.2,139.3 			"/>
			<polygon class="st14" points="485,154.5 515.8,156.2 515.8,151.4 485,149.5 			"/>
			<polygon class="st14" points="446.3,152.2 480.8,154.2 480.8,149.3 446.3,147.2 			"/>
			<polygon class="st14" points="495.3,271.6 515.8,270.9 515.8,266.1 495.3,266.7 			"/>
			<polygon class="st14" points="470.1,272.4 491.4,271.7 491.4,266.9 470.1,267.5 			"/>
			<polygon class="st14" points="480.8,280.9 515.8,279.5 515.8,274.7 480.8,275.9 			"/>
			<polygon class="st14" points="440,282.5 476.6,281 476.6,276.1 440,277.4 			"/>
			<g>
				<path class="st19" d="M320.1,105c-3.5-1.7-7.6-1.3-10.4,1.4c-1.4,1.3-2.2,3-2.6,4.8l4.7,1.5c0.5-2.3,2.4-3.8,4.7-3.6
					c0.6,0.1,1.2,0.2,1.8,0.5L320.1,105z"/>
				<path class="st18" d="M323.4,107.6c-0.1-0.1-0.2-0.2-0.2-0.2l-3.3,3.4c0.9,1,1.5,2.4,1.5,3.8c0,2.8-2.2,4.9-4.8,4.7
					c-1.9-0.1-3.6-1.4-4.4-3.2l-4.3,1.9c0.5,1,1.1,2,1.8,2.8c3.8,4.2,9.9,4.7,13.6,1C327.1,118.2,327.1,111.8,323.4,107.6z"/>
				<path class="st18" d="M311.7,113.8c0-0.4,0-0.7,0.1-1.1l-4.7-1.5c-0.5,2.2-0.2,4.6,0.8,6.7l4.3-1.9
					C311.9,115.4,311.7,114.6,311.7,113.8z"/>
				<path class="st20" d="M323.1,107.3c-0.9-1-1.9-1.7-3-2.3l-1.8,4.5c0.6,0.3,1.1,0.7,1.5,1.1L323.1,107.3z"/>
			</g>
			<g>
				<path class="st20" d="M307.7,179.2c1.5,3.7,4.9,6.3,8.9,6.4c1.9,0.1,3.7-0.5,5.2-1.4l-2.6-4.3c-1.9,1.2-4.4,0.9-6-0.9
					c-0.4-0.5-0.8-1-1-1.6L307.7,179.2z"/>
				<path class="st21" d="M306.9,175.1c0,0.1,0,0.2,0,0.3l4.8,0c0-1.4,0.4-2.7,1.4-3.7c1.9-1.9,5-1.8,6.8,0.3
					c1.3,1.5,1.7,3.5,1.2,5.3l4.5,1.8c0.3-1,0.5-2.1,0.5-3.2c0-5.6-4.3-10.2-9.6-10.5C311.2,165.1,306.9,169.5,306.9,175.1z"/>
				<path class="st19" d="M320,179.2c-0.3,0.3-0.5,0.5-0.8,0.7l2.6,4.3c1.8-1.2,3.2-3,3.9-5.1l-4.5-1.8
					C320.9,178,320.5,178.6,320,179.2z"/>
				<path class="st18" d="M306.9,175.5c0,1.3,0.3,2.6,0.8,3.7l4.5-1.9c-0.2-0.6-0.4-1.2-0.4-1.9L306.9,175.5z"/>
			</g>
			<g>
				<path class="st21" d="M320.4,154.3c3.4-1.4,5.8-4.8,5.8-9c0-2-0.6-3.9-1.5-5.5l-4,2.5c1.2,2,1,4.7-0.6,6.3c-0.4,0.4-1,0.8-1.5,1
					L320.4,154.3z"/>
				<path class="st20" d="M316.6,155c0.1,0,0.2,0,0.3,0l-0.2-5c-1.3,0-2.6-0.6-3.6-1.7c-1.9-2.1-1.9-5.3,0-7.2
					c1.3-1.3,3.3-1.6,5-0.9l1.5-4.7c-1-0.4-2-0.7-3.1-0.7c-5.3-0.3-9.7,3.9-9.7,9.6C306.9,149.9,311.2,154.7,316.6,155z"/>
				<path class="st18" d="M320,141.4c0.3,0.3,0.5,0.6,0.6,0.9l4-2.5c-1.2-2-2.9-3.6-5-4.4l-1.5,4.7
					C318.8,140.4,319.4,140.8,320,141.4z"/>
				<path class="st19" d="M316.9,155c1.2,0,2.4-0.2,3.5-0.6l-1.9-4.7c-0.6,0.2-1.2,0.3-1.7,0.3L316.9,155z"/>
			</g>
		</g>
		<path class="st0" d="M577,503.3c0,2.2-24.6,3.9-54.8,3.9c-30.3,0-54.8-1.8-54.8-3.9c0-2.2,24.6-3.9,54.8-3.9
			C552.4,499.4,577,501.1,577,503.3z"/>
		<g>
			<g>
				<linearGradient id="SVGID_14_" gradientUnits="userSpaceOnUse" x1="531.0574" y1="274.9926" x2="571.5787" y2="317.6244">
					<stop  offset="0" style="stop-color:#F70F47"/>
					<stop  offset="1" style="stop-color:#FFB41D"/>
				</linearGradient>
				<path class="st27" d="M517.5,293.5c4.3,1.3,7.9,0.1,18.4-2.1c15-3.1,18.4-4.8,26.8-9.8c5.5-3.3-3.7-14.1-12.1-11.7
					c-7.1,2-28.9,17-33.2,18.2C514.4,289,514,292.4,517.5,293.5z"/>
				<linearGradient id="SVGID_15_" gradientUnits="userSpaceOnUse" x1="555.5115" y1="253.7582" x2="593.8512" y2="294.0947">
					<stop  offset="0" style="stop-color:#F70F47"/>
					<stop  offset="1" style="stop-color:#FFB41D"/>
				</linearGradient>
				<path class="st28" d="M564.2,279.5c1.1-3.2,2.2-10.7,0-28.9c-1.3-11.1-2.7-15.8-3.7-19.1c-1.6-6-8.1-7.5-10.9-5.6
					c-4.5,3-8.4,10-7.7,13.2c3.6,17.9,7.6,31.5,7.7,36C549.7,281.6,563,283.3,564.2,279.5z"/>
				<path class="st29" d="M555.1,490.8c-0.7,2.4-0.4,3.2-0.7,4.8c-0.3,1.9-2.3,2.6-3.4,4.2c-1.2,1.7-3.2,4.2,4.4,4.4
					c8.1,0.1,12.9-0.1,11.5-4.3c-1.4-4.2-1.6-6-1.5-7.4c0.1-1.4,0-2.8-0.9-3.6C563.5,488.1,556.3,486.7,555.1,490.8z"/>
				<path class="st10" d="M457.9,256c-2.6-1.3-23.8-10.4-23.9-5.6c-0.2,5.3,7.4,10.6,10.1,12.1c5.1,2.7,11.2,1.7,13.6-0.8
					C459.4,260,460.4,257.2,457.9,256z"/>
				<path class="st10" d="M457.2,254.6c-0.8-1-5.7-7.1-7-6.3c-1.9,1.2,1.1,5.3,3,8c1.1,1.5,3.6,2.8,4.7,1.8
					C459.1,257.2,458.5,256.2,457.2,254.6z"/>
				<path class="st29" d="M493,494.3c-0.6,1.1-3.7,3.7-7.8,5.4c-4.2,1.7-13.1,2.5-8.1,4c4.9,1.5,10.7,0.6,13.6,0.2
					c2.9-0.4,5.7-0.5,9.2-0.5c4.5,0,4.6-0.3,4-4.9C502.9,492,495.1,490.7,493,494.3z"/>
				<path class="st10" d="M544.5,196.9c-0.9,8.7-1.2,10.6-5.2,14.1c-4,3.6-10.3,4.1-14.6,4.1c-4.7,0-7.8-5.4-8.8-9
					c-1.1-3.8-2.2-10.9-0.9-20.4c0.7-4.8,6.9-10.7,13.4-10.7C534.8,174.9,546.7,175.7,544.5,196.9z"/>
				
					<linearGradient id="SVGID_16_" gradientUnits="userSpaceOnUse" x1="549.7864" y1="215.5189" x2="549.7864" y2="308.2067" gradientTransform="matrix(0.5824 0.8129 -0.8129 0.5824 400.0666 -355.7053)">
					<stop  offset="0" style="stop-color:#F70F47"/>
					<stop  offset="1" style="stop-color:#FFB41D"/>
				</linearGradient>
				<path class="st30" d="M452.9,261.6c2.9,3.3,5.2,5.3,15.4,8.1c13.8,3.9,21.8,5.2,28.8,5.6c6.5,0.4,5.4-14.3-3-16.6
					c-7.1-2-34-0.5-38.4-1.7C452.9,256.3,450.6,258.9,452.9,261.6z"/>
				<linearGradient id="SVGID_17_" gradientUnits="userSpaceOnUse" x1="504.9077" y1="199.5279" x2="504.9077" y2="287.1702">
					<stop  offset="0" style="stop-color:#F70F47"/>
					<stop  offset="1" style="stop-color:#FFB41D"/>
				</linearGradient>
				<path class="st31" d="M497.8,271.7c2.7-2.2,7.9-7.9,16.5-24.4c5.2-10.1,6.7-14.7,7.8-18c2-5.9-2.6-10.5-6-10.3
					c-5.5,0.3-12.7,4.2-14,7.2c-7.1,17-11.5,30.4-14,34.2C484.4,266,494.6,274.2,497.8,271.7z"/>
				<path class="st10" d="M539.8,212.1c0.2,3,0.5,6.5,0.6,9.6c0.1,4.1-3.3,8-7.6,8.4c-0.2,0-0.3,0-0.5,0c-4,0-8.6-3.4-8.3-7.1
					c0.2-2.4,0.3-4.9,0.3-7.1c0-4.1,2.8-7.8,6.9-9.1l0,0C535.2,205.5,539.5,208.1,539.8,212.1z"/>
				<linearGradient id="SVGID_18_" gradientUnits="userSpaceOnUse" x1="527.3654" y1="199.5289" x2="527.3654" y2="287.1696">
					<stop  offset="0" style="stop-color:#F70F47"/>
					<stop  offset="1" style="stop-color:#FFB41D"/>
				</linearGradient>
				<path class="st32" d="M558.2,249.2c-7.4,22.9-9.8,46.8-8.3,62.8h-55.4c0,0,0.3-49.1,4-76c0.9-6.3,4.7-11.9,11.7-15.4
					c4.2-2.1,11.7-3.1,14.8-3.1h10.2c3.4,0,7.5,0.3,10.8,1.3C561.1,223.1,562.4,235.9,558.2,249.2z"/>
				<path class="st1" d="M549.6,344c0,0,4.8-11,0.2-32.1h-55.4c0,0-2,15-2,32.1H549.6z"/>
				<g>
					<g>
						<path class="st1" d="M538.7,412.7c-4.4-17.1,14-20.1,19.8-7.7c8.2,17.5,7.6,73.3,7.1,84.4c-0.1,1.5,0.2,3.3-0.6,3.8
							c-1.5,0.9-4.6,0.9-5.9,0.9c-2.1-0.1-4.1-0.1-4.3-2.5C553.5,475.3,543,429.2,538.7,412.7z"/>
						<path class="st1" d="M522.1,346.3c-1.9-21.2,6.9-37.7,20.8-30.7c5.9,2.9,8,8.8,8.8,14.4c0.8,5.6,5.1,63.2,6.6,73.7
							c3.4,23.5-16.2,17.2-18.3,10.7C534.6,397.9,523.2,357.9,522.1,346.3z"/>
					</g>
				</g>
				<path class="st1" d="M503.7,498c0.7-25,11.9-68.7,5.4-89.1c-4.1-12.9-20.5-13.3-19.8,2.6c0.8,17,6.2,50,4.3,82.8
					C493.5,497.6,503.6,501,503.7,498z"/>
				<path class="st1" d="M508.5,413.3c-2.2,6.5-20.9,14-19-9.6c0.9-10.5,3.2-68.4,3.6-74c0.4-5.6,1.5-13.7,4.4-14.8
					c14.8-5.1,29.2,11.6,25.3,32.5C520.2,361.4,513,399.8,508.5,413.3z"/>
				<path class="st10" d="M517.4,195c1.3,3,1,6-0.7,6.6c-1.7,0.6-4.1-1.3-5.4-4.3c-1.3-3-1-6,0.7-6.6
					C513.7,190.1,516.1,192,517.4,195z"/>
				<path class="st10" d="M541.2,195c-1.3,3-1,6,0.7,6.6c1.7,0.6,4.1-1.3,5.4-4.3c1.3-3,1-6-0.7-6.6
					C544.9,190.1,542.5,192,541.2,195z"/>
				<path class="st33" d="M541.7,179.8c-3.6,5-20.8,5.5-26.5,3.7c-5.6-1.9-5.2-12.2,2.8-12.9c4.5,0,1.3,1,4.9,2.4
					C524.8,173.7,545.5,174.4,541.7,179.8z"/>
			</g>
			<path class="st33" d="M522.3,178.9c-5.3,3-6.5,5.7-6.4,11.9c0.1,6.2,3,16.8,15.1,19.2c12.1,2.4,14.9-9,15.7-16.8
				c0.7-7.8,0.3-13.7-5.9-15.1C531.7,176,525.5,177,522.3,178.9z"/>
		</g>
		<g>
			<defs>
				<path id="SVGID_19_" d="M566.9,499.9c-1.3-4-1.6-5.8-1.5-7.2c0.4-0.8,0.2-2.1,0.3-3.3c0.4-11.1,1.1-67-7.1-84.4c0,0,0,0,0,0
					c0-0.4-0.1-0.8-0.1-1.2c-1.5-10.2-5.6-65.5-6.5-73.2c0.1-4.9-0.3-11.1-1.9-18.6c-0.6-6.8-0.5-15.1,0.4-24.2
					c4.5-1.6,7.7-3.3,12.4-6.1c0.9-0.5,1.3-1.2,1.5-2.1c0,0,0-0.1,0.1-0.1c1.1-3.2,2.2-10.7,0-28.9c-1.3-11.1-2.7-15.8-3.7-19.1
					c-0.5-2-1.6-3.4-2.9-4.4c-2.2-3.7-6-6.6-11.7-8.2c-1.8-0.5-3.8-0.8-5.8-1c-0.1-1.9-0.2-3.8-0.4-5.6c0-0.5-0.1-0.9-0.3-1.4
					c2.2-1.9,3.2-3.5,3.8-6c0.8-1.4,1.4-2.9,1.9-4.5c0.8-0.8,1.4-1.8,2-3c1.2-2.9,1-5.7-0.5-6.5c0.4-6-0.4-10.6-4.6-12.3
					c0.2-4.3-17.4-4.9-19.2-5.6c-3.7-1.4-0.4-2.4-4.9-2.4c-8.1,0.7-8.4,11-2.8,12.9c0.1,0,0.2,0.1,0.3,0.1c-0.3,0.7-0.5,1.4-0.6,2.1
					c-0.3,2-0.4,3.9-0.5,5.7c-0.8-0.6-1.7-0.8-2.4-0.5c-1.7,0.6-2,3.6-0.7,6.6c0.9,2,2.2,3.5,3.6,4.1c0.3,1.8,0.6,3.4,1,4.6
					c1,3.6,4,8.8,8.6,9c0,0.3-0.1,0.6-0.1,1c0,0.5,0,1,0,1.5c-2.8,0.1-8.1,0.8-12,2.2c-4.6,1.3-9.3,4.2-10.3,6.5
					c-0.4,1-0.8,1.9-1.2,2.8c-0.9,1.5-1.5,3.1-1.9,4.8c-5.3,13.3-8.8,23.4-10.9,26.6c-0.4,0.6-0.6,1.1-0.7,1.7
					c-5.6,4.7-17.7,22.3-22.3,27.1c-0.1,0-0.2,0.1-0.3,0.1c-0.6-0.1-1.2-0.1-2.1-0.1c-1.4,0.1-9.4,0.4-9.4,1.8
					c0,1.4,2.1,1.9,4.6,2.1c-6.4,3.9-14.8,9.7-12.1,11.7c4.5,3.2,13.4,0.4,16.3-0.9c4.4-2,6.9-6,7.2-9.2c3.2-0.6,6.5-2,12.9-6.8
					c5.5-4.1,9.7-7.4,13.1-10.4c-0.8,18.6-0.9,34.4-0.9,34.4s-2,15-2,32.1l0,0c-0.9,19.4-2.3,52-2.9,59.6c-0.2,1.9-0.2,3.6-0.1,5.1
					c-0.1,0.9-0.1,1.8-0.1,2.8c0.8,16.8,6.1,49.3,4.4,81.9c-0.3,0.3-0.5,0.5-0.7,0.9c-0.6,1.1-3.7,3.7-7.8,5.4
					c-4.2,1.7-13.1,2.5-8.1,4c4.9,1.5,10.7,0.6,13.6,0.2c2.9-0.4,5.7-0.5,9.2-0.5c4.5,0,4.6-0.3,4-4.9c0-0.1-0.1-0.3-0.1-0.4
					c0,0,0,0,0,0c0.7-24.5,11.5-67.1,5.7-87.9c4.3-14.9,10.4-46.8,13-60.9c2,12.6,10.2,41.9,15.6,59.1c0,1.3,0.2,2.8,0.6,4.3
					c4.3,16.5,14.8,62.6,16.2,78.9c0,0,0,0,0,0c-0.4,1.8-0.3,2.7-0.5,4c-0.3,1.9-2.3,2.6-3.4,4.2c-1.2,1.7-3.2,4.2,4.4,4.4
					C563.5,504.3,568.3,504,566.9,499.9z"/>
			</defs>
			<clipPath id="SVGID_20_">
				<use xlink:href="#SVGID_19_"  style="overflow:visible;"/>
			</clipPath>
			
				<linearGradient id="SVGID_21_" gradientUnits="userSpaceOnUse" x1="69.1707" y1="427.3593" x2="373.9565" y2="614.6134" gradientTransform="matrix(-0.3987 -0.8712 0.5368 -0.4748 372.4919 773.6556)">
				<stop  offset="0" style="stop-color:#0000FF"/>
				<stop  offset="1" style="stop-color:#9E005D"/>
			</linearGradient>
			<path class="st34" d="M548.1,159.9c25-14.5,71.2,7.5,79.5,36.1c8.5,29.2-14.7,43.2,4.3,83.6c15,32-2.2,67-6.3,94.7
				c-4.5,30.4,11.6,45.1,6.3,72.2c-12.2,62.4,47.8,99.5,2.5,112.7c-46.5,13.6-45.8-14.2-96.4-14.4c-43.9-0.1-46.3-106-41.8-146.5
				c4.8-42.9,30.9-50.2,19.6-95.8c-6.7-27.3-12.2-42.9,16.4-72.4C547,215.1,500.2,187.6,548.1,159.9z"/>
		</g>
		<g class="st35">
			<path class="st1" d="M522.9,109.4c-1.6,0-3.2-0.4-4.6-1.4c-0.7-0.5-1.4-1-2-1.7c-0.6-0.7-1.1-1.4-1.5-2.2
				c-1.8-3.4-1.8-7.6,0-10.9c0.4-0.8,0.9-1.5,1.5-2.1c0.6-0.6,1.3-1.1,2-1.5c1.5-0.8,3.1-1.2,4.6-1.1c1.6,0.1,3.1,0.7,4.4,1.7
				c0.6,0.5,1.2,1.1,1.8,1.7c0.5,0.7,1,1.4,1.3,2.2c1.5,3.2,1.5,7,0,10.1c-0.4,0.7-0.8,1.4-1.3,2.1c-0.5,0.6-1.1,1.2-1.8,1.6
				C526,108.9,524.4,109.4,522.9,109.4 M526.5,77.4l-7.4-1l-0.2,3.5c-1.7,0.3-3.4,0.8-4.9,1.7l-2.5-2.6l-6,5.8l2.3,3
				c-1,1.7-1.8,3.6-2.2,5.6l-3.5,0.1v9.4l3.5,0.3c0.5,2,1.2,4,2.2,5.8l-2.3,2.8l6,6.2l2.5-2.5c1.6,1,3.3,1.7,4.9,2.1l0.2,3.5
				l7.4-0.5l0.2-3.4c1.6-0.5,3-1.3,4.4-2.4l2.1,2.1l4.7-5.9l-1.7-2.4c0.8-1.6,1.3-3.3,1.7-5l2.5-0.2v-7.9l-2.5-0.4
				c-0.3-1.8-0.9-3.5-1.7-5.2l1.7-2.3l-4.7-6.2l-2.1,1.9c-1.4-1.1-2.9-2-4.4-2.7L526.5,77.4"/>
			<path class="st36" d="M487.4,85.2c-0.5,0-1-0.2-1.4-0.5c-0.2-0.1-0.4-0.3-0.6-0.5c-0.2-0.2-0.3-0.4-0.5-0.6c-0.5-0.9-0.5-2,0-2.9
				c0.1-0.2,0.3-0.4,0.5-0.5c0.2-0.2,0.4-0.3,0.6-0.4c0.4-0.2,0.9-0.3,1.4-0.2c0.5,0.1,1,0.2,1.4,0.5c0.2,0.1,0.4,0.3,0.6,0.5
				c0.2,0.2,0.3,0.4,0.4,0.6c0.5,0.9,0.5,2,0,2.8c-0.1,0.2-0.3,0.4-0.4,0.5c-0.2,0.2-0.4,0.3-0.6,0.4
				C488.4,85.1,487.9,85.2,487.4,85.2 M489.8,70.5l-4.7-0.7l-0.1,1.9c-1.1,0.1-2.1,0.4-3.1,0.8l-1.5-1.5l-3.6,3l1.3,1.7
				c-0.6,0.9-1.1,1.9-1.3,2.9l-2.1-0.1v5l2.1,0.3c0.3,1.1,0.7,2.2,1.3,3.2l-1.3,1.4l3.6,3.7l1.5-1.2c1,0.6,2,1.1,3.1,1.4l0.1,1.9
				l4.7,0.2l0.1-1.9c1-0.2,2-0.5,2.9-1l1.4,1.3l3.1-3l-1.2-1.5c0.5-0.9,0.9-1.8,1.1-2.8l1.7,0v-4.5l-1.7-0.3c-0.2-1-0.6-2-1.1-3
				l1.2-1.2l-3.1-3.6l-1.4,1c-0.9-0.7-1.9-1.2-2.9-1.6L489.8,70.5"/>
		</g>
	</g>
	<g>
		<g>
			<g>
				<defs>
					<path id="SVGID_22_" d="M201.8,184.4c-2.4-2.3-7.4,6.3-10.6,12.9c-0.5-2.3-1.4-4.3-2.8-4c-1.5,0.2-0.7,7.8-0.6,9.1
						c0.1,0.8,0.2,1.4,0.4,2c0,0.1,0,0.2-0.1,0.2c-4.5,5.1-21.9,19.3-25.6,25c-6.6-1.8-18.3-5.9-33-10.2c-0.6-0.2-1.4-0.2-2.2-0.1
						c-3.8-1.1-8.3-1.7-10.9-1.8c0-0.9,0-1.8-0.1-2.6c4.2-0.6,7.3-4.8,8.3-8.3c0.6-2.1,1.2-5.6,1.5-10c0.2-0.5,0.5-1,0.7-1.7
						c0.8-2.5,1.9-10.1-0.5-13.1c4.7-2.6,3.9-11.8-3.7-12.5c-4.5,0-1.3,1-4.9,2.4c-1.8,0.7-22,1.4-18.8,6.6
						c-1.5,0.2-2.8,1.4-3.6,4.3c-1.1,4-1.6,6.6-1,8.7c-0.3,0-0.5,0-0.7,0.1c-1.7,0.6-2,3.6-0.7,6.6c1,2.3,2.7,4,4.2,4.3
						c0.6,3.2,1.6,4.9,3.9,7c-0.2,2.5-0.4,5.5-0.6,8.4c-1.9,0.2-3.9,0.6-5.7,0.9c-1.7,0.3-3.3,0.7-4.7,1.3c-1.2,0.3-2.3,0.8-3.4,1.7
						c-2.4,1.5-4.1,3.3-5.2,5.6c-2.1,2.5-4.7,5.9-8.3,11.2c-10.5,15.4-13,22.6-13.6,25.9c0,0.3,0,0.5,0,0.8c0,0.4,0.1,0.8,0.3,1.3
						c4,8.6,5.9,11.7,16.5,22.3c5,5,7.7,7.9,10.2,9.6c-0.2,1.6,0.9,2.7,2.6,3.2c0.7,0.2,1.4,0.2,1.9,0.1c0.1,3.8,0,7.4-0.3,10.5
						c-1.6,7.5-2,13.7-1.9,18.6c-0.9,7.7-5.1,63-6.5,73.2c-0.1,0.4-0.1,0.8-0.1,1.2c0,0,0,0,0,0c-8.2,17.5-7.6,73.3-7.1,84.4
						c0,0.6,0.2,0.9,0.4,1c-0.2,0.7-0.2,1.4-0.1,2.1c0.1,1.4-0.2,3.2-1.5,7.4c-1.4,4.2,3.4,4.7,11.5,4.5c7.5-0.1,5.6-2.9,4.4-4.6
						c-1.1-1.6-3-2.3-3.4-4.2c-0.2-1.4-0.1-2.2-0.5-4c0,0,0,0,0,0c1.7-15.2,11.9-62.4,16.2-78.9c0.4-1.6,0.6-3,0.6-4.3
						c5.3-17.2,13.6-46.5,15.6-59.1c2.6,14.1,8.7,46,13,60.9c-5.7,20.8,5.1,63.4,5.7,87.9c0,0,0,0,0,0c0,0.2-0.1,0.3-0.1,0.5
						c-0.6,4.7-0.6,4.9,4,4.9c3.4,0,6.3,0.1,9.2,0.5c2.9,0.4,8.7,1.3,13.6-0.2c4.9-1.5-4-2.3-8.1-4c-4.2-1.7-7.2-4.3-7.8-5.4
						c-0.2-0.3-0.4-0.6-0.7-0.8c-0.3-32.6,3.6-65.1,4.4-81.9c0-1,0-2-0.1-2.8c0.1-1.5,0.1-3.2-0.1-5.1c-0.6-7.6-2-40.2-2.9-59.6l0,0
						c0-17-2-32.1-2-32.1s-0.3-42-3.3-69.6c15.8,3.1,23,2.9,26.3,2.3c1.1,0.1,2.1-0.1,3-1c4.8-4.9,9.6-11.1,16.8-22.9
						c4.1-6.7,5.2-10,5.3-13c3.3-0.7,7.2-3.6,8.6-8C204,196.9,205.7,188.2,201.8,184.4z M77,263.2c1.7-2.2,4.2-5.2,7.3-8.8
						c3.1,11.9,5.2,24.4,6.2,35.6C86.5,281.7,80.5,267.4,77,263.2z"/>
				</defs>
				<clipPath id="SVGID_23_">
					<use xlink:href="#SVGID_22_"  style="overflow:visible;"/>
				</clipPath>
			</g>
		</g>
		<g>
			<defs>
				<path id="SVGID_24_" d="M566.9,499.9c-1.3-4-1.6-5.8-1.5-7.2c0.4-0.8,0.2-2.1,0.3-3.3c0.4-11.1,1.1-67-7.1-84.4c0,0,0,0,0,0
					c0-0.4-0.1-0.8-0.1-1.2c-1.5-10.2-5.6-65.5-6.5-73.2c0.1-4.9-0.3-11.1-1.9-18.6c-0.6-6.8-0.5-15.1,0.4-24.2
					c4.5-1.6,7.7-3.3,12.4-6.1c0.9-0.5,1.3-1.2,1.5-2.1c0,0,0-0.1,0.1-0.1c1.1-3.2,2.2-10.7,0-28.9c-1.3-11.1-2.7-15.8-3.7-19.1
					c-0.5-2-1.6-3.4-2.9-4.4c-2.2-3.7-6-6.6-11.7-8.2c-1.8-0.5-3.8-0.8-5.8-1c-0.1-1.9-0.2-3.8-0.4-5.6c0-0.5-0.1-0.9-0.3-1.4
					c2.2-1.9,3.2-3.5,3.8-6c0.8-1.4,1.4-2.9,1.9-4.5c0.8-0.8,1.4-1.8,2-3c1.2-2.9,1-5.7-0.5-6.5c0.4-6-0.4-10.6-4.6-12.3
					c0.2-4.3-17.4-4.9-19.2-5.6c-3.7-1.4-0.4-2.4-4.9-2.4c-8.1,0.7-8.4,11-2.8,12.9c0.1,0,0.2,0.1,0.3,0.1c-0.3,0.7-0.5,1.4-0.6,2.1
					c-0.3,2-0.4,3.9-0.5,5.7c-0.8-0.6-1.7-0.8-2.4-0.5c-1.7,0.6-2,3.6-0.7,6.6c0.9,2,2.2,3.5,3.6,4.1c0.3,1.8,0.6,3.4,1,4.6
					c1,3.6,4,8.8,8.6,9c0,0.3-0.1,0.6-0.1,1c0,0.5,0,1,0,1.5c-2.8,0.1-8.1,0.8-12,2.2c-4.6,1.3-9.3,4.2-10.3,6.5
					c-0.4,1-0.8,1.9-1.2,2.8c-0.9,1.5-1.5,3.1-1.9,4.8c-5.3,13.3-8.8,23.4-10.9,26.6c-0.4,0.6-0.6,1.1-0.7,1.7
					c-5.6,4.7-17.7,22.3-22.3,27.1c-0.1,0-0.2,0.1-0.3,0.1c-0.6-0.1-1.2-0.1-2.1-0.1c-1.4,0.1-9.4,0.4-9.4,1.8
					c0,1.4,2.1,1.9,4.6,2.1c-6.4,3.9-14.8,9.7-12.1,11.7c4.5,3.2,13.4,0.4,16.3-0.9c4.4-2,6.9-6,7.2-9.2c3.2-0.6,6.5-2,12.9-6.8
					c5.5-4.1,9.7-7.4,13.1-10.4c-0.8,18.6-0.9,34.4-0.9,34.4s-2,15-2,32.1l0,0c-0.9,19.4-2.3,52-2.9,59.6c-0.2,1.9-0.2,3.6-0.1,5.1
					c-0.1,0.9-0.1,1.8-0.1,2.8c0.8,16.8,6.1,49.3,4.4,81.9c-0.3,0.3-0.5,0.5-0.7,0.9c-0.6,1.1-3.7,3.7-7.8,5.4
					c-4.2,1.7-13.1,2.5-8.1,4c4.9,1.5,10.7,0.6,13.6,0.2c2.9-0.4,5.7-0.5,9.2-0.5c4.5,0,4.6-0.3,4-4.9c0-0.1-0.1-0.3-0.1-0.4
					c0,0,0,0,0,0c0.7-24.5,11.5-67.1,5.7-87.9c4.3-14.9,10.4-46.8,13-60.9c2,12.6,10.2,41.9,15.6,59.1c0,1.3,0.2,2.8,0.6,4.3
					c4.3,16.5,14.8,62.6,16.2,78.9c0,0,0,0,0,0c-0.4,1.8-0.3,2.7-0.5,4c-0.3,1.9-2.3,2.6-3.4,4.2c-1.2,1.7-3.2,4.2,4.4,4.4
					C563.5,504.3,568.3,504,566.9,499.9z"/>
			</defs>
			<clipPath id="SVGID_25_">
				<use xlink:href="#SVGID_24_"  style="overflow:visible;"/>
			</clipPath>
		</g>
	</g>
</g>
<g id="Designed_by_Freepik">
</g>
</svg>
